<?xml version="1.0" encoding="UTF-8" standalone="no"?>
<!DOCTYPE svg PUBLIC "-//W3C//DTD SVG 1.1//EN"
 "http://www.w3.org/Graphics/SVG/1.1/DTD/svg11.dtd">
<!-- Generated by graphviz version 2.40.1 (20161225.0304)
 -->
<!-- Title: finite_state_machine Pages: 1 -->
<svg width="158pt" height="392pt"
 viewBox="0.00 0.00 158.00 392.00" xmlns="http://www.w3.org/2000/svg" xmlns:xlink="http://www.w3.org/1999/xlink">
<g id="graph0" class="graph" transform="scale(1 1) rotate(0) translate(4 388)">
<title>finite_state_machine</title>
<polygon fill="#ffffff" stroke="transparent" points="-4,4 -4,-388 154,-388 154,4 -4,4"/>
<!-- 0 -->
<g id="node1" class="node">
<title>0</title>
<ellipse fill="none" stroke="#000000" cx="78" cy="-366" rx="18" ry="18"/>
<text text-anchor="middle" x="78" y="-362.3" font-family="Times,serif" font-size="14.00" fill="#000000">0</text>
</g>
<!-- 1 -->
<g id="node2" class="node">
<title>1</title>
<ellipse fill="none" stroke="#000000" cx="18" cy="-192" rx="18" ry="18"/>
<text text-anchor="middle" x="18" y="-188.3" font-family="Times,serif" font-size="14.00" fill="#000000">1</text>
</g>
<!-- 0&#45;&gt;1 -->
<g id="edge3" class="edge">
<title>0&#45;&gt;1</title>
<path fill="none" stroke="#000000" d="M66.4436,-351.8305C56.1375,-338.4767 41.4161,-317.5077 33,-297 22.8926,-272.3711 19.4174,-242.072 18.3069,-220.3622"/>
<polygon fill="#000000" stroke="#000000" points="21.7969,-220.0253 17.926,-210.1629 14.8018,-220.2866 21.7969,-220.0253"/>
<text text-anchor="middle" x="42" y="-275.3" font-family="Times,serif" font-size="14.00" fill="#000000">7/7</text>
</g>
<!-- 2 -->
<g id="node3" class="node">
<title>2</title>
<ellipse fill="none" stroke="#000000" cx="132" cy="-192" rx="18" ry="18"/>
<text text-anchor="middle" x="132" y="-188.3" font-family="Times,serif" font-size="14.00" fill="#000000">2</text>
</g>
<!-- 0&#45;&gt;2 -->
<g id="edge1" class="edge">
<title>0&#45;&gt;2</title>
<path fill="none" stroke="#000000" d="M92.3225,-354.7951C99.6198,-348.3224 107.9881,-339.5768 113,-330 131.0971,-295.4198 133.928,-249.5964 133.5485,-220.4476"/>
<polygon fill="#000000" stroke="#000000" points="137.0393,-220.0528 133.271,-210.1507 130.0418,-220.2414 137.0393,-220.0528"/>
<text text-anchor="middle" x="140" y="-275.3" font-family="Times,serif" font-size="14.00" fill="#000000">8/8</text>
</g>
<!-- 3 -->
<g id="node4" class="node">
<title>3</title>
<ellipse fill="none" stroke="#000000" cx="78" cy="-279" rx="18" ry="18"/>
<text text-anchor="middle" x="78" y="-275.3" font-family="Times,serif" font-size="14.00" fill="#000000">3</text>
</g>
<!-- 0&#45;&gt;3 -->
<g id="edge2" class="edge">
<title>0&#45;&gt;3</title>
<path fill="none" stroke="#000000" d="M78,-347.9735C78,-336.1918 78,-320.5607 78,-307.1581"/>
<polygon fill="#000000" stroke="#000000" points="81.5001,-307.0033 78,-297.0034 74.5001,-307.0034 81.5001,-307.0033"/>
<text text-anchor="middle" x="93.5" y="-318.8" font-family="Times,serif" font-size="14.00" fill="#000000">10/10</text>
</g>
<!-- 4 -->
<g id="node5" class="node">
<title>4</title>
<ellipse fill="none" stroke="#000000" cx="79" cy="-105" rx="18" ry="18"/>
<text text-anchor="middle" x="79" y="-101.3" font-family="Times,serif" font-size="14.00" fill="#000000">4</text>
</g>
<!-- 1&#45;&gt;4 -->
<g id="edge8" class="edge">
<title>1&#45;&gt;4</title>
<path fill="none" stroke="#000000" d="M25.8758,-175.3218C31.0296,-165.0566 38.2311,-151.8359 46,-141 49.8905,-135.5737 54.5101,-130.0792 59.0422,-125.072"/>
<polygon fill="#000000" stroke="#000000" points="61.6839,-127.3716 65.9745,-117.6844 56.5794,-122.5816 61.6839,-127.3716"/>
<text text-anchor="middle" x="55" y="-144.8" font-family="Times,serif" font-size="14.00" fill="#000000">0/1</text>
</g>
<!-- 5 -->
<g id="node6" class="node">
<title>5</title>
<ellipse fill="none" stroke="#000000" cx="28" cy="-18" rx="18" ry="18"/>
<text text-anchor="middle" x="28" y="-14.3" font-family="Times,serif" font-size="14.00" fill="#000000">5</text>
</g>
<!-- 1&#45;&gt;5 -->
<g id="edge9" class="edge">
<title>1&#45;&gt;5</title>
<path fill="none" stroke="#000000" d="M18.1202,-173.7713C18.3514,-152.8143 19.0269,-117.3911 21,-87 21.8688,-73.6179 23.3066,-58.8197 24.6538,-46.3706"/>
<polygon fill="#000000" stroke="#000000" points="28.1659,-46.4565 25.7979,-36.1297 21.2092,-45.6793 28.1659,-46.4565"/>
<text text-anchor="middle" x="36.5" y="-101.3" font-family="Times,serif" font-size="14.00" fill="#000000">17/21</text>
</g>
<!-- 2&#45;&gt;4 -->
<g id="edge4" class="edge">
<title>2&#45;&gt;4</title>
<path fill="none" stroke="#000000" d="M122.5247,-176.4461C114.5357,-163.3322 102.9669,-144.342 93.7643,-129.2358"/>
<polygon fill="#000000" stroke="#000000" points="96.585,-127.1384 88.3933,-120.4192 90.6069,-130.7802 96.585,-127.1384"/>
<text text-anchor="middle" x="120.5" y="-144.8" font-family="Times,serif" font-size="14.00" fill="#000000">8/12</text>
</g>
<!-- 3&#45;&gt;1 -->
<g id="edge7" class="edge">
<title>3&#45;&gt;1</title>
<path fill="none" stroke="#000000" d="M62.1709,-269.8494C52.4498,-263.4739 40.4706,-254.1322 33,-243 28.4229,-236.1795 25.2153,-227.9373 22.9782,-220.0862"/>
<polygon fill="#000000" stroke="#000000" points="26.3246,-219.0342 20.5629,-210.143 19.5224,-220.6867 26.3246,-219.0342"/>
<text text-anchor="middle" x="48.5" y="-231.8" font-family="Times,serif" font-size="14.00" fill="#000000">10/11</text>
</g>
<!-- 3&#45;&gt;2 -->
<g id="edge6" class="edge">
<title>3&#45;&gt;2</title>
<path fill="none" stroke="#000000" d="M87.6541,-263.4461C95.7938,-250.3322 107.5808,-231.342 116.9571,-216.2358"/>
<polygon fill="#000000" stroke="#000000" points="120.1295,-217.7614 122.4295,-207.4192 114.182,-214.0698 120.1295,-217.7614"/>
<text text-anchor="middle" x="117" y="-231.8" font-family="Times,serif" font-size="14.00" fill="#000000">0/2</text>
</g>
<!-- 3&#45;&gt;4 -->
<g id="edge5" class="edge">
<title>3&#45;&gt;4</title>
<path fill="none" stroke="#000000" d="M78.1051,-260.7078C78.2796,-230.3436 78.6303,-169.3226 78.8371,-133.3464"/>
<polygon fill="#000000" stroke="#000000" points="82.3387,-133.0671 78.8963,-123.0471 75.3388,-133.0268 82.3387,-133.0671"/>
<text text-anchor="middle" x="87" y="-188.3" font-family="Times,serif" font-size="14.00" fill="#000000">0/5</text>
</g>
<!-- 4&#45;&gt;5 -->
<g id="edge10" class="edge">
<title>4&#45;&gt;5</title>
<path fill="none" stroke="#000000" d="M69.8822,-89.4461C62.2422,-76.4132 51.1998,-57.5762 42.3714,-42.5159"/>
<polygon fill="#000000" stroke="#000000" points="45.2875,-40.5695 37.2108,-33.7125 39.2486,-44.1096 45.2875,-40.5695"/>
<text text-anchor="middle" x="68.5" y="-57.8" font-family="Times,serif" font-size="14.00" fill="#000000">8/14</text>
</g>
</g>
</svg>
