<?xml version="1.0" encoding="UTF-8" standalone="no"?>
<!DOCTYPE svg PUBLIC "-//W3C//DTD SVG 1.1//EN"
 "http://www.w3.org/Graphics/SVG/1.1/DTD/svg11.dtd">
<!-- Generated by graphviz version 2.40.1 (20161225.0304)
 -->
<!-- Title: finite_state_machine Pages: 1 -->
<svg width="287pt" height="566pt"
 viewBox="0.00 0.00 287.00 566.00" xmlns="http://www.w3.org/2000/svg" xmlns:xlink="http://www.w3.org/1999/xlink">
<g id="graph0" class="graph" transform="scale(1 1) rotate(0) translate(4 562)">
<title>finite_state_machine</title>
<polygon fill="#ffffff" stroke="transparent" points="-4,4 -4,-562 283,-562 283,4 -4,4"/>
<!-- 0 -->
<g id="node1" class="node">
<title>0</title>
<ellipse fill="none" stroke="#000000" cx="78" cy="-540" rx="18" ry="18"/>
<text text-anchor="middle" x="78" y="-536.3" font-family="Times,serif" font-size="14.00" fill="#000000">0</text>
</g>
<!-- 1 -->
<g id="node2" class="node">
<title>1</title>
<ellipse fill="none" stroke="#000000" cx="78" cy="-453" rx="18" ry="18"/>
<text text-anchor="middle" x="78" y="-449.3" font-family="Times,serif" font-size="14.00" fill="#000000">1</text>
</g>
<!-- 0&#45;&gt;1 -->
<g id="edge5" class="edge">
<title>0&#45;&gt;1</title>
<path fill="none" stroke="#000000" d="M78,-521.9735C78,-510.1918 78,-494.5607 78,-481.1581"/>
<polygon fill="#000000" stroke="#000000" points="81.5001,-481.0033 78,-471.0034 74.5001,-481.0034 81.5001,-481.0033"/>
<text text-anchor="middle" x="93.5" y="-492.8" font-family="Times,serif" font-size="14.00" fill="#000000">28/38</text>
</g>
<!-- 2 -->
<g id="node3" class="node">
<title>2</title>
<ellipse fill="none" stroke="#000000" cx="18" cy="-366" rx="18" ry="18"/>
<text text-anchor="middle" x="18" y="-362.3" font-family="Times,serif" font-size="14.00" fill="#000000">2</text>
</g>
<!-- 0&#45;&gt;2 -->
<g id="edge6" class="edge">
<title>0&#45;&gt;2</title>
<path fill="none" stroke="#000000" d="M66.3618,-526.1984C55.8487,-512.9357 40.8573,-491.8811 33,-471 23.6242,-446.0834 20.0542,-415.8216 18.7227,-394.1987"/>
<polygon fill="#000000" stroke="#000000" points="22.2105,-393.8619 18.2223,-384.0464 15.2189,-394.2066 22.2105,-393.8619"/>
<text text-anchor="middle" x="42" y="-449.3" font-family="Times,serif" font-size="14.00" fill="#000000">1/1</text>
</g>
<!-- 6 -->
<g id="node7" class="node">
<title>6</title>
<ellipse fill="none" stroke="#000000" cx="228" cy="-192" rx="18" ry="18"/>
<text text-anchor="middle" x="228" y="-188.3" font-family="Times,serif" font-size="14.00" fill="#000000">6</text>
</g>
<!-- 0&#45;&gt;6 -->
<g id="edge4" class="edge">
<title>0&#45;&gt;6</title>
<path fill="none" stroke="#000000" d="M95.5468,-535.6598C141.3502,-523.8208 261,-489.4097 261,-453 261,-453 261,-453 261,-279 261,-256.8536 251.5361,-233.4767 242.7446,-216.5385"/>
<polygon fill="#000000" stroke="#000000" points="245.5955,-214.4576 237.7226,-207.3676 239.4558,-217.8197 245.5955,-214.4576"/>
<text text-anchor="middle" x="270" y="-362.3" font-family="Times,serif" font-size="14.00" fill="#000000">2/2</text>
</g>
<!-- 1&#45;&gt;2 -->
<g id="edge13" class="edge">
<title>1&#45;&gt;2</title>
<path fill="none" stroke="#000000" d="M65.0874,-439.924C58.9312,-433.3417 51.688,-425.0631 46,-417 40.4158,-409.0841 35.0859,-399.9415 30.6034,-391.6022"/>
<polygon fill="#000000" stroke="#000000" points="33.6576,-389.8893 25.9343,-382.6366 27.449,-393.1226 33.6576,-389.8893"/>
<text text-anchor="middle" x="55" y="-405.8" font-family="Times,serif" font-size="14.00" fill="#000000">8/8</text>
</g>
<!-- 3 -->
<g id="node4" class="node">
<title>3</title>
<ellipse fill="none" stroke="#000000" cx="129" cy="-279" rx="18" ry="18"/>
<text text-anchor="middle" x="129" y="-275.3" font-family="Times,serif" font-size="14.00" fill="#000000">3</text>
</g>
<!-- 1&#45;&gt;3 -->
<g id="edge14" class="edge">
<title>1&#45;&gt;3</title>
<path fill="none" stroke="#000000" d="M84.9356,-436.2876C87.3206,-430.2603 89.9133,-423.3731 92,-417 104.3877,-379.1661 115.7857,-334.5302 122.5659,-306.4917"/>
<polygon fill="#000000" stroke="#000000" points="126.0078,-307.1471 124.9308,-296.6072 119.1999,-305.5183 126.0078,-307.1471"/>
<text text-anchor="middle" x="126.5" y="-362.3" font-family="Times,serif" font-size="14.00" fill="#000000">10/10</text>
</g>
<!-- 4 -->
<g id="node5" class="node">
<title>4</title>
<ellipse fill="none" stroke="#000000" cx="63" cy="-192" rx="18" ry="18"/>
<text text-anchor="middle" x="63" y="-188.3" font-family="Times,serif" font-size="14.00" fill="#000000">4</text>
</g>
<!-- 1&#45;&gt;4 -->
<g id="edge15" class="edge">
<title>1&#45;&gt;4</title>
<path fill="none" stroke="#000000" d="M76.9452,-434.647C74.3624,-389.7053 67.707,-273.9017 64.6187,-220.1653"/>
<polygon fill="#000000" stroke="#000000" points="68.1018,-219.7689 64.0337,-209.9862 61.1133,-220.1706 68.1018,-219.7689"/>
<text text-anchor="middle" x="85.5" y="-318.8" font-family="Times,serif" font-size="14.00" fill="#000000">10/13</text>
</g>
<!-- 2&#45;&gt;3 -->
<g id="edge16" class="edge">
<title>2&#45;&gt;3</title>
<path fill="none" stroke="#000000" d="M16.063,-347.6259C15.9416,-336.9941 17.6316,-323.9829 25,-315 34.8315,-303.0142 73.985,-291.7589 101.3379,-285.1238"/>
<polygon fill="#000000" stroke="#000000" points="102.2241,-288.5109 111.1577,-282.8151 100.622,-281.6967 102.2241,-288.5109"/>
<text text-anchor="middle" x="40.5" y="-318.8" font-family="Times,serif" font-size="14.00" fill="#000000">11/26</text>
</g>
<!-- 3&#45;&gt;4 -->
<g id="edge9" class="edge">
<title>3&#45;&gt;4</title>
<path fill="none" stroke="#000000" d="M116.3847,-265.7046C110.2988,-259.0703 103.029,-250.8114 97,-243 90.4372,-234.497 83.7639,-224.7706 78.0875,-216.1076"/>
<polygon fill="#000000" stroke="#000000" points="80.9385,-214.0703 72.5795,-207.5605 75.0545,-217.8622 80.9385,-214.0703"/>
<text text-anchor="middle" x="109.5" y="-231.8" font-family="Times,serif" font-size="14.00" fill="#000000">0/20</text>
</g>
<!-- 5 -->
<g id="node6" class="node">
<title>5</title>
<ellipse fill="none" stroke="#000000" cx="59" cy="-105" rx="18" ry="18"/>
<text text-anchor="middle" x="59" y="-101.3" font-family="Times,serif" font-size="14.00" fill="#000000">5</text>
</g>
<!-- 3&#45;&gt;5 -->
<g id="edge10" class="edge">
<title>3&#45;&gt;5</title>
<path fill="none" stroke="#000000" d="M127.7695,-260.8027C126.7887,-250.9524 125.051,-238.6538 122,-228 110.3341,-187.2635 103.4901,-178.0906 83,-141 80.6901,-136.8187 78.0468,-132.4933 75.3783,-128.3533"/>
<polygon fill="#000000" stroke="#000000" points="78.0768,-126.0915 69.6159,-119.7146 72.2534,-129.9759 78.0768,-126.0915"/>
<text text-anchor="middle" x="125" y="-188.3" font-family="Times,serif" font-size="14.00" fill="#000000">6/8</text>
</g>
<!-- 3&#45;&gt;6 -->
<g id="edge7" class="edge">
<title>3&#45;&gt;6</title>
<path fill="none" stroke="#000000" d="M145.8499,-272.1089C159.6028,-265.9123 178.9839,-255.8202 193,-243 201.2012,-235.4985 208.492,-225.7264 214.2679,-216.7459"/>
<polygon fill="#000000" stroke="#000000" points="217.2963,-218.5023 219.5165,-208.1426 211.3205,-214.8566 217.2963,-218.5023"/>
<text text-anchor="middle" x="220.5" y="-231.8" font-family="Times,serif" font-size="14.00" fill="#000000">14/24</text>
</g>
<!-- 7 -->
<g id="node8" class="node">
<title>7</title>
<ellipse fill="none" stroke="#000000" cx="147" cy="-18" rx="18" ry="18"/>
<text text-anchor="middle" x="147" y="-14.3" font-family="Times,serif" font-size="14.00" fill="#000000">7</text>
</g>
<!-- 3&#45;&gt;7 -->
<g id="edge8" class="edge">
<title>3&#45;&gt;7</title>
<path fill="none" stroke="#000000" d="M133.524,-261.5312C134.8673,-255.6791 136.1938,-249.0933 137,-243 146.2943,-172.7514 147.4409,-89.2067 147.3178,-46.3947"/>
<polygon fill="#000000" stroke="#000000" points="150.8166,-46.1566 147.2613,-36.1761 143.8167,-46.1954 150.8166,-46.1566"/>
<text text-anchor="middle" x="154" y="-144.8" font-family="Times,serif" font-size="14.00" fill="#000000">1/1</text>
</g>
<!-- 4&#45;&gt;2 -->
<g id="edge1" class="edge">
<title>4&#45;&gt;2</title>
<path fill="none" stroke="#000000" d="M54.1265,-207.6661C41.8244,-230.4325 20.2795,-274.3858 13,-315 11.6403,-322.5858 11.7734,-330.8774 12.5445,-338.5285"/>
<polygon fill="#000000" stroke="#000000" points="9.0778,-339.0105 13.9114,-348.4384 16.0121,-338.054 9.0778,-339.0105"/>
<text text-anchor="middle" x="37" y="-275.3" font-family="Times,serif" font-size="14.00" fill="#000000">2/2</text>
</g>
<!-- 4&#45;&gt;5 -->
<g id="edge3" class="edge">
<title>4&#45;&gt;5</title>
<path fill="none" stroke="#000000" d="M62.1712,-173.9735C61.6295,-162.1918 60.9108,-146.5607 60.2946,-133.1581"/>
<polygon fill="#000000" stroke="#000000" points="63.7834,-132.832 59.8277,-123.0034 56.7908,-133.1536 63.7834,-132.832"/>
<text text-anchor="middle" x="70" y="-144.8" font-family="Times,serif" font-size="14.00" fill="#000000">1/1</text>
</g>
<!-- 4&#45;&gt;7 -->
<g id="edge2" class="edge">
<title>4&#45;&gt;7</title>
<path fill="none" stroke="#000000" d="M72.0129,-176.3621C75.5435,-170.0877 79.5632,-162.7546 83,-156 102.5195,-117.6371 123.1258,-72.1863 135.5232,-44.2225"/>
<polygon fill="#000000" stroke="#000000" points="138.8652,-45.3185 139.702,-34.7568 132.4615,-42.4914 138.8652,-45.3185"/>
<text text-anchor="middle" x="125" y="-101.3" font-family="Times,serif" font-size="14.00" fill="#000000">7/7</text>
</g>
<!-- 5&#45;&gt;7 -->
<g id="edge12" class="edge">
<title>5&#45;&gt;7</title>
<path fill="none" stroke="#000000" d="M63.4478,-87.3148C66.8423,-76.6706 72.4234,-63.4052 81,-54 91.6525,-42.3184 106.9997,-33.6318 120.2145,-27.7212"/>
<polygon fill="#000000" stroke="#000000" points="121.9016,-30.8103 129.7911,-23.7388 119.2137,-24.3469 121.9016,-30.8103"/>
<text text-anchor="middle" x="90" y="-57.8" font-family="Times,serif" font-size="14.00" fill="#000000">7/7</text>
</g>
<!-- 6&#45;&gt;7 -->
<g id="edge11" class="edge">
<title>6&#45;&gt;7</title>
<path fill="none" stroke="#000000" d="M227.7177,-173.9041C226.4726,-145.9532 220.7594,-91.5847 196,-54 189.9896,-44.8763 180.8299,-37.2455 172.0497,-31.3918"/>
<polygon fill="#000000" stroke="#000000" points="173.8766,-28.4065 163.5268,-26.1411 170.2049,-34.3663 173.8766,-28.4065"/>
<text text-anchor="middle" x="236.5" y="-101.3" font-family="Times,serif" font-size="14.00" fill="#000000">16/27</text>
</g>
</g>
</svg>
