<?xml version="1.0" encoding="UTF-8" standalone="no"?>
<!DOCTYPE svg PUBLIC "-//W3C//DTD SVG 1.1//EN"
 "http://www.w3.org/Graphics/SVG/1.1/DTD/svg11.dtd">
<!-- Generated by graphviz version 2.40.1 (20161225.0304)
 -->
<!-- Title: finite_state_machine Pages: 1 -->
<svg width="249pt" height="479pt"
 viewBox="0.00 0.00 248.60 479.00" xmlns="http://www.w3.org/2000/svg" xmlns:xlink="http://www.w3.org/1999/xlink">
<g id="graph0" class="graph" transform="scale(1 1) rotate(0) translate(4 475)">
<title>finite_state_machine</title>
<polygon fill="#ffffff" stroke="transparent" points="-4,4 -4,-475 244.5964,-475 244.5964,4 -4,4"/>
<!-- 3 -->
<g id="node1" class="node">
<title>3</title>
<ellipse fill="none" stroke="#000000" cx="38.5964" cy="-453" rx="18" ry="18"/>
<text text-anchor="middle" x="38.5964" y="-449.3" font-family="Times,serif" font-size="14.00" fill="#000000">3</text>
</g>
<!-- 4 -->
<g id="node2" class="node">
<title>4</title>
<ellipse fill="none" stroke="#000000" cx="65.5964" cy="-366" rx="18" ry="18"/>
<text text-anchor="middle" x="65.5964" y="-362.3" font-family="Times,serif" font-size="14.00" fill="#000000">4</text>
</g>
<!-- 3&#45;&gt;4 -->
<g id="edge1" class="edge">
<title>3&#45;&gt;4</title>
<path fill="none" stroke="#000000" d="M44.0603,-435.3943C47.8177,-423.287 52.881,-406.972 57.154,-393.2034"/>
<polygon fill="#000000" stroke="#000000" points="60.6115,-393.8707 60.2328,-383.2827 53.9261,-391.7959 60.6115,-393.8707"/>
<text text-anchor="middle" x="57.0964" y="-405.8" font-family="Times,serif" font-size="14.00" fill="#000000">5</text>
</g>
<!-- 2 -->
<g id="node3" class="node">
<title>2</title>
<ellipse fill="none" stroke="#000000" cx="49.5964" cy="-279" rx="18" ry="18"/>
<text text-anchor="middle" x="49.5964" y="-275.3" font-family="Times,serif" font-size="14.00" fill="#000000">2</text>
</g>
<!-- 3&#45;&gt;2 -->
<g id="edge2" class="edge">
<title>3&#45;&gt;2</title>
<path fill="none" stroke="#000000" d="M35.2992,-435.1003C31.926,-414.1496 27.6909,-378.4435 31.5964,-348 33.4056,-333.8978 37.214,-318.5622 40.8639,-305.9377"/>
<polygon fill="#000000" stroke="#000000" points="44.3071,-306.6423 43.8451,-296.0575 37.6055,-304.6201 44.3071,-306.6423"/>
<text text-anchor="middle" x="35.0964" y="-362.3" font-family="Times,serif" font-size="14.00" fill="#000000">2</text>
</g>
<!-- 0 -->
<g id="node4" class="node">
<title>0</title>
<ellipse fill="none" stroke="#000000" cx="46.5964" cy="-192" rx="18" ry="18"/>
<text text-anchor="middle" x="46.5964" y="-188.3" font-family="Times,serif" font-size="14.00" fill="#000000">0</text>
</g>
<!-- 3&#45;&gt;0 -->
<g id="edge3" class="edge">
<title>3&#45;&gt;0</title>
<path fill="none" stroke="#000000" d="M32.1221,-435.991C30.0793,-430.0564 27.9934,-423.3034 26.5964,-417 11.5898,-349.2868 7.2784,-328.6434 22.5964,-261 25.8677,-246.5543 31.1488,-230.9294 35.9252,-218.2074"/>
<polygon fill="#000000" stroke="#000000" points="39.2575,-219.2942 39.5996,-208.7049 32.7286,-216.7696 39.2575,-219.2942"/>
<text text-anchor="middle" x="19.5964" y="-318.8" font-family="Times,serif" font-size="14.00" fill="#000000">10</text>
</g>
<!-- 1 -->
<g id="node5" class="node">
<title>1</title>
<ellipse fill="none" stroke="#000000" cx="96.5964" cy="-105" rx="18" ry="18"/>
<text text-anchor="middle" x="96.5964" y="-101.3" font-family="Times,serif" font-size="14.00" fill="#000000">1</text>
</g>
<!-- 3&#45;&gt;1 -->
<g id="edge4" class="edge">
<title>3&#45;&gt;1</title>
<path fill="none" stroke="#000000" d="M52.0395,-440.7678C65.0264,-428.0195 83.9615,-406.7552 92.5964,-384 128.6159,-289.0803 103.4839,-257.4765 106.5964,-156 106.8008,-149.3365 107.4968,-147.6056 106.5964,-141 106.2022,-138.1078 105.6376,-135.1199 104.9746,-132.1595"/>
<polygon fill="#000000" stroke="#000000" points="108.3378,-131.1848 102.4468,-122.3788 101.5605,-132.9365 108.3378,-131.1848"/>
<text text-anchor="middle" x="115.0964" y="-275.3" font-family="Times,serif" font-size="14.00" fill="#000000">1</text>
</g>
<!-- 4&#45;&gt;2 -->
<g id="edge16" class="edge">
<title>4&#45;&gt;2</title>
<path fill="none" stroke="#000000" d="M62.2812,-347.9735C60.1,-336.1132 57.2014,-320.3521 54.7257,-306.8903"/>
<polygon fill="#000000" stroke="#000000" points="58.1037,-305.9077 52.8526,-296.7057 51.2192,-307.1738 58.1037,-305.9077"/>
<text text-anchor="middle" x="61.0964" y="-318.8" font-family="Times,serif" font-size="14.00" fill="#000000">8</text>
</g>
<!-- 5 -->
<g id="node6" class="node">
<title>5</title>
<ellipse fill="none" stroke="#000000" cx="95.5964" cy="-18" rx="18" ry="18"/>
<text text-anchor="middle" x="95.5964" y="-14.3" font-family="Times,serif" font-size="14.00" fill="#000000">5</text>
</g>
<!-- 4&#45;&gt;5 -->
<g id="edge17" class="edge">
<title>4&#45;&gt;5</title>
<path fill="none" stroke="#000000" d="M83.0625,-361.5652C115.2333,-352.2298 180.5964,-327.3174 180.5964,-279 180.5964,-279 180.5964,-279 180.5964,-105 180.5964,-70.5472 146.0704,-44.6716 121.0273,-30.4345"/>
<polygon fill="#000000" stroke="#000000" points="122.4477,-27.2239 111.9853,-25.5542 119.1229,-33.3839 122.4477,-27.2239"/>
<text text-anchor="middle" x="184.0964" y="-188.3" font-family="Times,serif" font-size="14.00" fill="#000000">6</text>
</g>
<!-- 2&#45;&gt;4 -->
<g id="edge13" class="edge">
<title>2&#45;&gt;4</title>
<path fill="none" stroke="#000000" d="M46.5361,-297.1656C45.4623,-307.0066 45.072,-319.3063 47.5964,-330 48.4834,-333.7574 49.826,-337.5698 51.3861,-341.2384"/>
<polygon fill="#000000" stroke="#000000" points="48.3517,-343.0028 55.8607,-350.4772 54.6517,-339.9515 48.3517,-343.0028"/>
<text text-anchor="middle" x="51.0964" y="-318.8" font-family="Times,serif" font-size="14.00" fill="#000000">4</text>
</g>
<!-- 2&#45;&gt;0 -->
<g id="edge12" class="edge">
<title>2&#45;&gt;0</title>
<path fill="none" stroke="#000000" d="M43.7461,-261.6212C42.054,-255.7752 40.4375,-249.1701 39.5964,-243 38.5508,-235.3291 39.0143,-227.01 40.0854,-219.3598"/>
<polygon fill="#000000" stroke="#000000" points="43.54,-219.923 41.8378,-209.4658 36.6473,-218.7021 43.54,-219.923"/>
<text text-anchor="middle" x="43.0964" y="-231.8" font-family="Times,serif" font-size="14.00" fill="#000000">8</text>
</g>
<!-- 0&#45;&gt;3 -->
<g id="edge10" class="edge">
<title>0&#45;&gt;3</title>
<path fill="none" stroke="#000000" d="M35.9789,-206.9829C31.7904,-213.2884 27.1427,-220.8178 23.5964,-228 5.9384,-263.7619 5.2429,-275.2833 1.5964,-315 -2.6055,-360.7662 1.2649,-374.4346 18.5964,-417 20.1594,-420.8386 22.0401,-424.7847 24.0144,-428.5928"/>
<polygon fill="#000000" stroke="#000000" points="21.1014,-430.5592 28.9874,-437.6346 27.2349,-427.1857 21.1014,-430.5592"/>
<text text-anchor="middle" x="5.0964" y="-318.8" font-family="Times,serif" font-size="14.00" fill="#000000">0</text>
</g>
<!-- 0&#45;&gt;2 -->
<g id="edge11" class="edge">
<title>0&#45;&gt;2</title>
<path fill="none" stroke="#000000" d="M47.2172,-210.0034C47.6233,-221.7801 48.1623,-237.4102 48.6246,-250.8156"/>
<polygon fill="#000000" stroke="#000000" points="45.1322,-251.1001 48.9748,-260.9735 52.128,-250.8588 45.1322,-251.1001"/>
<text text-anchor="middle" x="51.0964" y="-231.8" font-family="Times,serif" font-size="14.00" fill="#000000">0</text>
</g>
<!-- 0&#45;&gt;1 -->
<g id="edge9" class="edge">
<title>0&#45;&gt;1</title>
<path fill="none" stroke="#000000" d="M47.8467,-173.5693C49.1833,-163.42 51.9365,-150.9105 57.5964,-141 61.6178,-133.9587 67.4829,-127.5043 73.4489,-122.0655"/>
<polygon fill="#000000" stroke="#000000" points="76.0762,-124.4297 81.4834,-115.3185 71.5746,-119.0691 76.0762,-124.4297"/>
<text text-anchor="middle" x="61.0964" y="-144.8" font-family="Times,serif" font-size="14.00" fill="#000000">0</text>
</g>
<!-- 1&#45;&gt;3 -->
<g id="edge7" class="edge">
<title>1&#45;&gt;3</title>
<path fill="none" stroke="#000000" d="M114.3998,-108.2664C150.0035,-115.9358 226.5964,-138.636 226.5964,-192 226.5964,-366 226.5964,-366 226.5964,-366 226.5964,-400.9081 118.4916,-432.9015 66.2347,-446.3276"/>
<polygon fill="#000000" stroke="#000000" points="65.1259,-442.9974 56.283,-448.833 66.8349,-449.7856 65.1259,-442.9974"/>
<text text-anchor="middle" x="233.5964" y="-275.3" font-family="Times,serif" font-size="14.00" fill="#000000">10</text>
</g>
<!-- 1&#45;&gt;4 -->
<g id="edge5" class="edge">
<title>1&#45;&gt;4</title>
<path fill="none" stroke="#000000" d="M95.0467,-123.0384C92.0472,-157.1023 84.9979,-233.2046 76.5964,-297 74.8022,-310.6239 72.442,-325.7014 70.368,-338.2784"/>
<polygon fill="#000000" stroke="#000000" points="66.9116,-337.7274 68.7119,-348.1682 73.8155,-338.8836 66.9116,-337.7274"/>
<text text-anchor="middle" x="88.0964" y="-231.8" font-family="Times,serif" font-size="14.00" fill="#000000">1</text>
</g>
<!-- 1&#45;&gt;0 -->
<g id="edge6" class="edge">
<title>1&#45;&gt;0</title>
<path fill="none" stroke="#000000" d="M87.4838,-120.856C80.0295,-133.8265 69.3573,-152.396 60.7855,-167.3111"/>
<polygon fill="#000000" stroke="#000000" points="57.7155,-165.6287 55.7672,-176.0429 63.7846,-169.1167 57.7155,-165.6287"/>
<text text-anchor="middle" x="77.0964" y="-144.8" font-family="Times,serif" font-size="14.00" fill="#000000">7</text>
</g>
<!-- 1&#45;&gt;5 -->
<g id="edge8" class="edge">
<title>1&#45;&gt;5</title>
<path fill="none" stroke="#000000" d="M96.3892,-86.9735C96.2538,-75.1918 96.0741,-59.5607 95.9201,-46.1581"/>
<polygon fill="#000000" stroke="#000000" points="99.4182,-45.9624 95.8034,-36.0034 92.4186,-46.043 99.4182,-45.9624"/>
<text text-anchor="middle" x="99.0964" y="-57.8" font-family="Times,serif" font-size="14.00" fill="#000000">4</text>
</g>
<!-- 5&#45;&gt;4 -->
<g id="edge15" class="edge">
<title>5&#45;&gt;4</title>
<path fill="none" stroke="#000000" d="M78.7222,-24.7857C52.1626,-36.7126 3.5964,-64.1118 3.5964,-105 3.5964,-235.5 3.5964,-235.5 3.5964,-235.5 3.5964,-277.0098 29.5052,-319.3862 47.8258,-344.1626"/>
<polygon fill="#000000" stroke="#000000" points="45.0837,-346.3387 53.9347,-352.1621 50.6471,-342.0902 45.0837,-346.3387"/>
<text text-anchor="middle" x="7.0964" y="-188.3" font-family="Times,serif" font-size="14.00" fill="#000000">8</text>
</g>
<!-- 5&#45;&gt;1 -->
<g id="edge14" class="edge">
<title>5&#45;&gt;1</title>
<path fill="none" stroke="#000000" d="M85.4152,-32.9419C79.7982,-42.9861 74.5262,-56.6049 77.5964,-69 78.5814,-72.9765 80.0945,-76.9981 81.8461,-80.8403"/>
<polygon fill="#000000" stroke="#000000" points="78.8251,-82.6182 86.5264,-89.8943 85.0435,-79.4038 78.8251,-82.6182"/>
<text text-anchor="middle" x="84.5964" y="-57.8" font-family="Times,serif" font-size="14.00" fill="#000000">17</text>
</g>
</g>
</svg>
