<?xml version="1.0" encoding="UTF-8" standalone="no"?>
<!DOCTYPE svg PUBLIC "-//W3C//DTD SVG 1.1//EN"
 "http://www.w3.org/Graphics/SVG/1.1/DTD/svg11.dtd">
<!-- Generated by graphviz version 2.40.1 (20161225.0304)
 -->
<!-- Title: finite_state_machine Pages: 1 -->
<svg width="278pt" height="395pt"
 viewBox="0.00 0.00 277.88 395.00" xmlns="http://www.w3.org/2000/svg" xmlns:xlink="http://www.w3.org/1999/xlink">
<g id="graph0" class="graph" transform="scale(1 1) rotate(0) translate(4 390.9965)">
<title>finite_state_machine</title>
<polygon fill="#ffffff" stroke="transparent" points="-4,4 -4,-390.9965 273.8831,-390.9965 273.8831,4 -4,4"/>
<!-- 0 -->
<g id="node1" class="node">
<title>0</title>
<ellipse fill="none" stroke="#000000" cx="159.8831" cy="-368.9965" rx="18" ry="18"/>
<text text-anchor="middle" x="159.8831" y="-365.2965" font-family="Times,serif" font-size="14.00" fill="#000000">0</text>
</g>
<!-- 1 -->
<g id="node2" class="node">
<title>1</title>
<ellipse fill="none" stroke="#000000" cx="80.8831" cy="-281.9965" rx="18" ry="18"/>
<text text-anchor="middle" x="80.8831" y="-278.2965" font-family="Times,serif" font-size="14.00" fill="#000000">1</text>
</g>
<!-- 0&#45;&gt;1 -->
<g id="edge9" class="edge">
<title>0&#45;&gt;1</title>
<path fill="none" stroke="#000000" d="M142.3449,-364.0894C126.9927,-358.8809 105.2612,-349.1306 92.8831,-332.9965 87.8223,-326.4 84.8455,-318.0122 83.1099,-309.9532"/>
<polygon fill="#000000" stroke="#000000" points="86.5648,-309.3929 81.5116,-300.0808 79.6548,-310.5116 86.5648,-309.3929"/>
<text text-anchor="middle" x="96.3831" y="-321.7965" font-family="Times,serif" font-size="14.00" fill="#000000">0</text>
</g>
<!-- 2 -->
<g id="node3" class="node">
<title>2</title>
<ellipse fill="none" stroke="#000000" cx="149.8831" cy="-18" rx="18" ry="18"/>
<text text-anchor="middle" x="149.8831" y="-14.3" font-family="Times,serif" font-size="14.00" fill="#000000">2</text>
</g>
<!-- 0&#45;&gt;2 -->
<g id="edge11" class="edge">
<title>0&#45;&gt;2</title>
<path fill="none" stroke="#000000" d="M174.4075,-357.7629C192.1646,-342.6405 219.8831,-313.9218 219.8831,-281.9965 219.8831,-281.9965 219.8831,-281.9965 219.8831,-105 219.8831,-74.8059 193.9727,-49.149 173.6796,-33.6847"/>
<polygon fill="#000000" stroke="#000000" points="175.5695,-30.7318 165.4184,-27.6977 171.4618,-36.3999 175.5695,-30.7318"/>
<text text-anchor="middle" x="223.3831" y="-189.7983" font-family="Times,serif" font-size="14.00" fill="#000000">0</text>
</g>
<!-- 3 -->
<g id="node4" class="node">
<title>3</title>
<ellipse fill="none" stroke="#000000" cx="149.8831" cy="-193.4983" rx="18" ry="18"/>
<text text-anchor="middle" x="149.8831" y="-189.7983" font-family="Times,serif" font-size="14.00" fill="#000000">3</text>
</g>
<!-- 0&#45;&gt;3 -->
<g id="edge10" class="edge">
<title>0&#45;&gt;3</title>
<path fill="none" stroke="#000000" d="M163.4602,-351.1243C164.4524,-345.3627 165.3919,-338.9323 165.8831,-332.9965 169.6267,-287.7634 168.6933,-275.7073 160.8831,-230.9965 160.2994,-227.6549 159.5241,-224.1882 158.6543,-220.7727"/>
<polygon fill="#000000" stroke="#000000" points="161.9408,-219.5311 155.8585,-210.8561 155.2034,-221.4307 161.9408,-219.5311"/>
<text text-anchor="middle" x="171.3831" y="-278.2965" font-family="Times,serif" font-size="14.00" fill="#000000">0</text>
</g>
<!-- 1&#45;&gt;0 -->
<g id="edge6" class="edge">
<title>1&#45;&gt;0</title>
<path fill="none" stroke="#000000" d="M89.9447,-297.5598C96.4679,-308.118 105.855,-322.0856 115.8831,-332.9965 122.2197,-339.891 129.9029,-346.6197 137.0642,-352.3587"/>
<polygon fill="#000000" stroke="#000000" points="135.0686,-355.2399 145.1194,-358.5916 139.3525,-349.7038 135.0686,-355.2399"/>
<text text-anchor="middle" x="119.3831" y="-321.7965" font-family="Times,serif" font-size="14.00" fill="#000000">7</text>
</g>
<!-- 1&#45;&gt;3 -->
<g id="edge7" class="edge">
<title>1&#45;&gt;3</title>
<path fill="none" stroke="#000000" d="M80.808,-263.5158C81.6163,-253.1056 84.1163,-240.3556 90.8831,-230.9965 100.4441,-217.7731 109.1356,-221.7873 122.8831,-212.9965 124.1618,-212.1789 125.4622,-211.3239 126.7663,-210.4478"/>
<polygon fill="#000000" stroke="#000000" points="129.0423,-213.1275 135.2378,-204.5329 125.0349,-207.3881 129.0423,-213.1275"/>
<text text-anchor="middle" x="97.8831" y="-234.7965" font-family="Times,serif" font-size="14.00" fill="#000000">10</text>
</g>
<!-- 4 -->
<g id="node5" class="node">
<title>4</title>
<ellipse fill="none" stroke="#000000" cx="79.8831" cy="-105" rx="18" ry="18"/>
<text text-anchor="middle" x="79.8831" y="-101.3" font-family="Times,serif" font-size="14.00" fill="#000000">4</text>
</g>
<!-- 1&#45;&gt;4 -->
<g id="edge5" class="edge">
<title>1&#45;&gt;4</title>
<path fill="none" stroke="#000000" d="M64.0583,-275.3271C50.6768,-269.3214 32.2159,-259.3804 19.8831,-245.9965 8.8379,-234.0098 7.5312,-228.8827 3.8831,-212.9965 .004,-196.1044 -1.9436,-190.323 3.8831,-174 10.2539,-156.1528 17.1388,-154.0463 30.8831,-141 38.6111,-133.6645 47.8626,-126.517 56.2349,-120.5496"/>
<polygon fill="#000000" stroke="#000000" points="58.3108,-123.3694 64.5406,-114.7997 54.3264,-117.6139 58.3108,-123.3694"/>
<text text-anchor="middle" x="7.3831" y="-189.7983" font-family="Times,serif" font-size="14.00" fill="#000000">1</text>
</g>
<!-- 5 -->
<g id="node7" class="node">
<title>5</title>
<ellipse fill="none" stroke="#000000" cx="37.8831" cy="-193.4983" rx="18" ry="18"/>
<text text-anchor="middle" x="37.8831" y="-189.7983" font-family="Times,serif" font-size="14.00" fill="#000000">5</text>
</g>
<!-- 1&#45;&gt;5 -->
<g id="edge8" class="edge">
<title>1&#45;&gt;5</title>
<path fill="none" stroke="#000000" d="M63.8404,-275.802C51.1176,-270.17 34.6454,-260.5004 26.8831,-245.9965 22.4774,-237.7644 23.2102,-227.9275 25.7322,-219.0057"/>
<polygon fill="#000000" stroke="#000000" points="29.0759,-220.0503 29.1614,-209.4558 22.4877,-217.6846 29.0759,-220.0503"/>
<text text-anchor="middle" x="30.3831" y="-234.7965" font-family="Times,serif" font-size="14.00" fill="#000000">4</text>
</g>
<!-- 2&#45;&gt;0 -->
<g id="edge12" class="edge">
<title>2&#45;&gt;0</title>
<path fill="none" stroke="#000000" d="M167.5394,-22.6805C199.3206,-32.2939 262.8831,-57.4629 262.8831,-105 262.8831,-281.9965 262.8831,-281.9965 262.8831,-281.9965 262.8831,-321.7432 217.5666,-347.039 187.0504,-359.5673"/>
<polygon fill="#000000" stroke="#000000" points="185.4124,-356.4486 177.3557,-363.329 187.9446,-362.9745 185.4124,-356.4486"/>
<text text-anchor="middle" x="266.3831" y="-189.7983" font-family="Times,serif" font-size="14.00" fill="#000000">8</text>
</g>
<!-- 2&#45;&gt;4 -->
<g id="edge13" class="edge">
<title>2&#45;&gt;4</title>
<path fill="none" stroke="#000000" d="M138.5391,-32.099C127.5043,-45.8137 110.572,-66.8582 97.7312,-82.8174"/>
<polygon fill="#000000" stroke="#000000" points="94.9841,-80.6484 91.4422,-90.6337 100.4379,-85.0366 94.9841,-80.6484"/>
<text text-anchor="middle" x="122.3831" y="-57.8" font-family="Times,serif" font-size="14.00" fill="#000000">4</text>
</g>
<!-- 3&#45;&gt;0 -->
<g id="edge3" class="edge">
<title>3&#45;&gt;0</title>
<path fill="none" stroke="#000000" d="M148.7404,-211.6221C147.6275,-232.8422 146.4303,-269.0302 148.8831,-299.9965 149.9682,-313.6951 152.2469,-328.7813 154.4504,-341.3446"/>
<polygon fill="#000000" stroke="#000000" points="151.0141,-342.0113 156.2557,-351.2187 157.9,-340.7522 151.0141,-342.0113"/>
<text text-anchor="middle" x="155.8831" y="-278.2965" font-family="Times,serif" font-size="14.00" fill="#000000">10</text>
</g>
<!-- 3&#45;&gt;1 -->
<g id="edge4" class="edge">
<title>3&#45;&gt;1</title>
<path fill="none" stroke="#000000" d="M138.5954,-207.9758C127.6232,-222.0485 110.8086,-243.6146 98.1543,-259.8448"/>
<polygon fill="#000000" stroke="#000000" points="95.3577,-257.7394 91.9692,-267.7778 100.8781,-262.0435 95.3577,-257.7394"/>
<text text-anchor="middle" x="122.3831" y="-234.7965" font-family="Times,serif" font-size="14.00" fill="#000000">1</text>
</g>
<!-- 3&#45;&gt;2 -->
<g id="edge2" class="edge">
<title>3&#45;&gt;2</title>
<path fill="none" stroke="#000000" d="M149.8831,-175.3779C149.8831,-144.8217 149.8831,-82.8271 149.8831,-46.4319"/>
<polygon fill="#000000" stroke="#000000" points="153.3832,-46.0218 149.8831,-36.0218 146.3832,-46.0218 153.3832,-46.0218"/>
<text text-anchor="middle" x="153.3831" y="-101.3" font-family="Times,serif" font-size="14.00" fill="#000000">2</text>
</g>
<!-- 4&#45;&gt;2 -->
<g id="edge16" class="edge">
<title>4&#45;&gt;2</title>
<path fill="none" stroke="#000000" d="M83.7129,-87.1695C86.6048,-76.7304 91.3873,-63.7309 98.8831,-54 105.8276,-44.9849 115.6551,-37.3088 124.8323,-31.3898"/>
<polygon fill="#000000" stroke="#000000" points="126.9013,-34.2296 133.662,-26.0721 123.2899,-28.2331 126.9013,-34.2296"/>
<text text-anchor="middle" x="102.3831" y="-57.8" font-family="Times,serif" font-size="14.00" fill="#000000">8</text>
</g>
<!-- 4&#45;&gt;5 -->
<g id="edge17" class="edge">
<title>4&#45;&gt;5</title>
<path fill="none" stroke="#000000" d="M72.1606,-121.2722C66.0109,-134.2303 57.2856,-152.6154 50.1773,-167.5932"/>
<polygon fill="#000000" stroke="#000000" points="46.9086,-166.3175 45.783,-176.8524 53.2326,-169.3188 46.9086,-166.3175"/>
<text text-anchor="middle" x="66.3831" y="-144.8" font-family="Times,serif" font-size="14.00" fill="#000000">6</text>
</g>
<!-- 53 -->
<g id="node6" class="node">
<title>53</title>
<ellipse fill="none" stroke="#000000" cx="94.8831" cy="-193.4983" rx="19.4965" ry="19.4965"/>
<text text-anchor="middle" x="94.8831" y="-189.7983" font-family="Times,serif" font-size="14.00" fill="#000000">53</text>
</g>
<!-- 53&#45;&gt;4 -->
<g id="edge1" class="edge">
<title>53&#45;&gt;4</title>
<path fill="none" stroke="#000000" d="M91.5541,-173.8576C89.511,-161.8033 86.8623,-146.1765 84.6048,-132.8572"/>
<polygon fill="#000000" stroke="#000000" points="88.0192,-132.057 82.8972,-122.7826 81.1176,-133.2269 88.0192,-132.057"/>
<text text-anchor="middle" x="91.3831" y="-144.8" font-family="Times,serif" font-size="14.00" fill="#000000">5</text>
</g>
<!-- 5&#45;&gt;1 -->
<g id="edge14" class="edge">
<title>5&#45;&gt;1</title>
<path fill="none" stroke="#000000" d="M42.0903,-211.0598C44.9544,-221.5245 49.2503,-234.8889 54.8831,-245.9965 57.2019,-250.5691 60.0705,-255.1952 63.0467,-259.5386"/>
<polygon fill="#000000" stroke="#000000" points="60.4521,-261.9217 69.1654,-267.9491 66.1127,-257.8036 60.4521,-261.9217"/>
<text text-anchor="middle" x="61.8831" y="-234.7965" font-family="Times,serif" font-size="14.00" fill="#000000">17</text>
</g>
<!-- 5&#45;&gt;4 -->
<g id="edge15" class="edge">
<title>5&#45;&gt;4</title>
<path fill="none" stroke="#000000" d="M34.285,-175.6874C33.0095,-165.1343 32.9321,-151.7646 37.8831,-141 41.7481,-132.5967 48.6497,-125.4208 55.756,-119.7383"/>
<polygon fill="#000000" stroke="#000000" points="57.9639,-122.4611 64.0224,-113.7694 53.8661,-116.7859 57.9639,-122.4611"/>
<text text-anchor="middle" x="41.3831" y="-144.8" font-family="Times,serif" font-size="14.00" fill="#000000">8</text>
</g>
</g>
</svg>
