<?xml version="1.0" encoding="UTF-8" standalone="no"?>
<!DOCTYPE svg PUBLIC "-//W3C//DTD SVG 1.1//EN"
 "http://www.w3.org/Graphics/SVG/1.1/DTD/svg11.dtd">
<!-- Generated by graphviz version 2.40.1 (20161225.0304)
 -->
<!-- Title: finite_state_machine Pages: 1 -->
<svg width="720pt" height="63pt"
 viewBox="0.00 0.00 720.00 62.57" xmlns="http://www.w3.org/2000/svg" xmlns:xlink="http://www.w3.org/1999/xlink">
<g id="graph0" class="graph" transform="scale(.2012 .2012) rotate(0) translate(4 306.9931)">
<title>finite_state_machine</title>
<polygon fill="#ffffff" stroke="transparent" points="-4,4 -4,-306.9931 3574.469,-306.9931 3574.469,4 -4,4"/>
<!-- 0 -->
<g id="node1" class="node">
<title>0</title>
<ellipse fill="none" stroke="#000000" cx="1816.469" cy="-284.9931" rx="18" ry="18"/>
<text text-anchor="middle" x="1816.469" y="-281.2931" font-family="Times,serif" font-size="14.00" fill="#000000">0</text>
</g>
<!-- 13 -->
<g id="node14" class="node">
<title>13</title>
<ellipse fill="none" stroke="#000000" cx="1776.469" cy="-196.4948" rx="19.4965" ry="19.4965"/>
<text text-anchor="middle" x="1776.469" y="-192.7948" font-family="Times,serif" font-size="14.00" fill="#000000">13</text>
</g>
<!-- 0&#45;&gt;13 -->
<g id="edge30" class="edge">
<title>0&#45;&gt;13</title>
<path fill="none" stroke="#000000" d="M1808.9453,-268.3472C1803.2819,-255.8172 1795.3963,-238.3706 1788.8136,-223.8068"/>
<polygon fill="#000000" stroke="#000000" points="1791.8161,-221.9516 1784.508,-214.2807 1785.4374,-224.8347 1791.8161,-221.9516"/>
<text text-anchor="middle" x="1808.469" y="-237.7931" font-family="Times,serif" font-size="14.00" fill="#000000">1/1</text>
</g>
<!-- 14 -->
<g id="node15" class="node">
<title>14</title>
<ellipse fill="none" stroke="#000000" cx="1048.469" cy="-196.4948" rx="19.4965" ry="19.4965"/>
<text text-anchor="middle" x="1048.469" y="-192.7948" font-family="Times,serif" font-size="14.00" fill="#000000">14</text>
</g>
<!-- 0&#45;&gt;14 -->
<g id="edge29" class="edge">
<title>0&#45;&gt;14</title>
<path fill="none" stroke="#000000" d="M1798.3718,-284.2861C1758.4162,-282.2815 1660.054,-274.896 1582.469,-248.9931 1569.0779,-244.5223 1568.0791,-237.7446 1554.469,-233.9931 1470.8294,-210.9383 1250.738,-225.2005 1164.469,-215.9931 1134.7095,-212.8169 1101.0064,-206.8871 1077.6281,-202.3974"/>
<polygon fill="#000000" stroke="#000000" points="1078.1501,-198.9333 1067.6646,-200.4509 1076.808,-205.8034 1078.1501,-198.9333"/>
<text text-anchor="middle" x="1591.469" y="-237.7931" font-family="Times,serif" font-size="14.00" fill="#000000">1/1</text>
</g>
<!-- 15 -->
<g id="node16" class="node">
<title>15</title>
<ellipse fill="none" stroke="#000000" cx="3508.469" cy="-196.4948" rx="19.4965" ry="19.4965"/>
<text text-anchor="middle" x="3508.469" y="-192.7948" font-family="Times,serif" font-size="14.00" fill="#000000">15</text>
</g>
<!-- 0&#45;&gt;15 -->
<g id="edge28" class="edge">
<title>0&#45;&gt;15</title>
<path fill="none" stroke="#000000" d="M1834.9168,-284.9386C1982.7734,-284.4424 2977.1402,-279.9778 3275.469,-248.9931 3355.9324,-240.6361 3376.3842,-237.1345 3454.469,-215.9931 3463.0873,-213.6597 3472.2861,-210.5719 3480.6038,-207.5433"/>
<polygon fill="#000000" stroke="#000000" points="3482.0839,-210.7262 3490.2144,-203.9333 3479.6223,-204.1733 3482.0839,-210.7262"/>
<text text-anchor="middle" x="3389.469" y="-237.7931" font-family="Times,serif" font-size="14.00" fill="#000000">1/1</text>
</g>
<!-- 16 -->
<g id="node17" class="node">
<title>16</title>
<ellipse fill="none" stroke="#000000" cx="187.469" cy="-196.4948" rx="19.4965" ry="19.4965"/>
<text text-anchor="middle" x="187.469" y="-192.7948" font-family="Times,serif" font-size="14.00" fill="#000000">16</text>
</g>
<!-- 0&#45;&gt;16 -->
<g id="edge27" class="edge">
<title>0&#45;&gt;16</title>
<path fill="none" stroke="#000000" d="M1798.2191,-284.6117C1696.2265,-282.4288 1186.4537,-270.8419 770.469,-248.9931 562.6823,-238.0795 510.0819,-240.6002 303.469,-215.9931 273.7505,-212.4537 240.0415,-206.5765 216.6506,-202.1982"/>
<polygon fill="#000000" stroke="#000000" points="217.1583,-198.7322 206.681,-200.3058 215.8528,-205.6094 217.1583,-198.7322"/>
<text text-anchor="middle" x="779.469" y="-237.7931" font-family="Times,serif" font-size="14.00" fill="#000000">1/1</text>
</g>
<!-- 17 -->
<g id="node18" class="node">
<title>17</title>
<ellipse fill="none" stroke="#000000" cx="331.469" cy="-196.4948" rx="19.4965" ry="19.4965"/>
<text text-anchor="middle" x="331.469" y="-192.7948" font-family="Times,serif" font-size="14.00" fill="#000000">17</text>
</g>
<!-- 0&#45;&gt;17 -->
<g id="edge26" class="edge">
<title>0&#45;&gt;17</title>
<path fill="none" stroke="#000000" d="M1798.4289,-284.1186C1643.1992,-276.5881 536.9023,-222.7985 467.469,-215.9931 430.5849,-212.3779 388.3751,-205.9685 360.8912,-201.4885"/>
<polygon fill="#000000" stroke="#000000" points="361.2083,-197.9935 350.7716,-199.8174 360.0678,-204.9 361.2083,-197.9935"/>
<text text-anchor="middle" x="1061.469" y="-237.7931" font-family="Times,serif" font-size="14.00" fill="#000000">1/1</text>
</g>
<!-- 18 -->
<g id="node19" class="node">
<title>18</title>
<ellipse fill="none" stroke="#000000" cx="1500.469" cy="-196.4948" rx="19.4965" ry="19.4965"/>
<text text-anchor="middle" x="1500.469" y="-192.7948" font-family="Times,serif" font-size="14.00" fill="#000000">18</text>
</g>
<!-- 0&#45;&gt;18 -->
<g id="edge25" class="edge">
<title>0&#45;&gt;18</title>
<path fill="none" stroke="#000000" d="M1798.684,-280.724C1777.2248,-275.167 1740.4223,-264.3213 1711.469,-248.9931 1701.6491,-243.7943 1701.6204,-238.5104 1691.469,-233.9931 1676.877,-227.4998 1579.6726,-210.1467 1529.8301,-201.5147"/>
<polygon fill="#000000" stroke="#000000" points="1530.4094,-198.063 1519.96,-199.8122 1529.2194,-204.9612 1530.4094,-198.063"/>
<text text-anchor="middle" x="1720.469" y="-237.7931" font-family="Times,serif" font-size="14.00" fill="#000000">1/1</text>
</g>
<!-- 19 -->
<g id="node20" class="node">
<title>19</title>
<ellipse fill="none" stroke="#000000" cx="3426.469" cy="-196.4948" rx="19.4965" ry="19.4965"/>
<text text-anchor="middle" x="3426.469" y="-192.7948" font-family="Times,serif" font-size="14.00" fill="#000000">19</text>
</g>
<!-- 0&#45;&gt;19 -->
<g id="edge24" class="edge">
<title>0&#45;&gt;19</title>
<path fill="none" stroke="#000000" d="M1834.7048,-284.781C1972.8859,-283.1306 2856.8712,-271.7968 3123.469,-248.9931 3225.924,-240.2295 3251.6973,-236.4601 3352.469,-215.9931 3367.6168,-212.9165 3384.2803,-208.6092 3397.9531,-204.8252"/>
<polygon fill="#000000" stroke="#000000" points="3399.0763,-208.145 3407.7512,-202.0626 3397.1766,-201.4077 3399.0763,-208.145"/>
<text text-anchor="middle" x="3262.469" y="-237.7931" font-family="Times,serif" font-size="14.00" fill="#000000">1/1</text>
</g>
<!-- 20 -->
<g id="node21" class="node">
<title>20</title>
<ellipse fill="none" stroke="#000000" cx="65.469" cy="-196.4948" rx="19.4965" ry="19.4965"/>
<text text-anchor="middle" x="65.469" y="-192.7948" font-family="Times,serif" font-size="14.00" fill="#000000">20</text>
</g>
<!-- 0&#45;&gt;20 -->
<g id="edge23" class="edge">
<title>0&#45;&gt;20</title>
<path fill="none" stroke="#000000" d="M1798.1054,-284.7057C1657.0216,-282.4672 743.3101,-267.4212 467.469,-248.9931 330.1028,-239.8161 295.4774,-237.3329 159.469,-215.9931 137.4819,-212.5433 112.8563,-207.3872 94.3273,-203.2436"/>
<polygon fill="#000000" stroke="#000000" points="94.9793,-199.8026 84.4526,-201.0023 93.4299,-206.629 94.9793,-199.8026"/>
<text text-anchor="middle" x="476.469" y="-237.7931" font-family="Times,serif" font-size="14.00" fill="#000000">1/1</text>
</g>
<!-- 21 -->
<g id="node22" class="node">
<title>21</title>
<ellipse fill="none" stroke="#000000" cx="2893.469" cy="-196.4948" rx="19.4965" ry="19.4965"/>
<text text-anchor="middle" x="2893.469" y="-192.7948" font-family="Times,serif" font-size="14.00" fill="#000000">21</text>
</g>
<!-- 0&#45;&gt;21 -->
<g id="edge22" class="edge">
<title>0&#45;&gt;21</title>
<path fill="none" stroke="#000000" d="M1834.6877,-284.7191C1918.2254,-283.3356 2272.9604,-276.0786 2562.469,-248.9931 2668.3561,-239.0866 2694.6785,-234.1364 2799.469,-215.9931 2821.3988,-212.1962 2846.0269,-207.0551 2864.5714,-203.0052"/>
<polygon fill="#000000" stroke="#000000" points="2865.445,-206.3968 2874.456,-200.8243 2863.9367,-199.5612 2865.445,-206.3968"/>
<text text-anchor="middle" x="2697.469" y="-237.7931" font-family="Times,serif" font-size="14.00" fill="#000000">1/1</text>
</g>
<!-- 22 -->
<g id="node23" class="node">
<title>22</title>
<ellipse fill="none" stroke="#000000" cx="2771.469" cy="-196.4948" rx="19.4965" ry="19.4965"/>
<text text-anchor="middle" x="2771.469" y="-192.7948" font-family="Times,serif" font-size="14.00" fill="#000000">22</text>
</g>
<!-- 0&#45;&gt;22 -->
<g id="edge21" class="edge">
<title>0&#45;&gt;22</title>
<path fill="none" stroke="#000000" d="M1834.7036,-284.4198C1907.9842,-282.0065 2188.1104,-271.7284 2417.469,-248.9931 2523.7379,-238.4591 2549.913,-232.179 2655.469,-215.9931 2685.0518,-211.4569 2718.7804,-205.7242 2742.2129,-201.6517"/>
<polygon fill="#000000" stroke="#000000" points="2742.9538,-205.0753 2752.2028,-199.9076 2741.7498,-198.1796 2742.9538,-205.0753"/>
<text text-anchor="middle" x="2549.469" y="-237.7931" font-family="Times,serif" font-size="14.00" fill="#000000">1/1</text>
</g>
<!-- 23 -->
<g id="node24" class="node">
<title>23</title>
<ellipse fill="none" stroke="#000000" cx="3016.469" cy="-196.4948" rx="19.4965" ry="19.4965"/>
<text text-anchor="middle" x="3016.469" y="-192.7948" font-family="Times,serif" font-size="14.00" fill="#000000">23</text>
</g>
<!-- 0&#45;&gt;23 -->
<g id="edge20" class="edge">
<title>0&#45;&gt;23</title>
<path fill="none" stroke="#000000" d="M1834.5496,-284.5489C1945.1474,-281.7889 2531.5271,-266.5305 2710.469,-248.9931 2813.0634,-238.9382 2933.1502,-214.6067 2987.334,-202.9416"/>
<polygon fill="#000000" stroke="#000000" points="2988.2373,-206.3271 2997.2673,-200.7855 2986.7524,-199.4864 2988.2373,-206.3271"/>
<text text-anchor="middle" x="2828.469" y="-237.7931" font-family="Times,serif" font-size="14.00" fill="#000000">1/1</text>
</g>
<!-- 24 -->
<g id="node25" class="node">
<title>24</title>
<ellipse fill="none" stroke="#000000" cx="495.469" cy="-196.4948" rx="19.4965" ry="19.4965"/>
<text text-anchor="middle" x="495.469" y="-192.7948" font-family="Times,serif" font-size="14.00" fill="#000000">24</text>
</g>
<!-- 0&#45;&gt;24 -->
<g id="edge19" class="edge">
<title>0&#45;&gt;24</title>
<path fill="none" stroke="#000000" d="M1798.3791,-283.926C1730.2991,-279.8791 1483.0113,-264.9005 1279.469,-248.9931 1204.7332,-243.1523 1186.2827,-238.7326 1111.469,-233.9931 898.4128,-220.4959 844.0894,-235.1681 631.469,-215.9931 594.5579,-212.6643 552.3539,-206.1937 524.8787,-201.6212"/>
<polygon fill="#000000" stroke="#000000" points="525.206,-198.127 514.7627,-199.9124 524.04,-205.0292 525.206,-198.127"/>
<text text-anchor="middle" x="1288.469" y="-237.7931" font-family="Times,serif" font-size="14.00" fill="#000000">1/1</text>
</g>
<!-- 25 -->
<g id="node26" class="node">
<title>25</title>
<ellipse fill="none" stroke="#000000" cx="2484.469" cy="-196.4948" rx="19.4965" ry="19.4965"/>
<text text-anchor="middle" x="2484.469" y="-192.7948" font-family="Times,serif" font-size="14.00" fill="#000000">25</text>
</g>
<!-- 0&#45;&gt;25 -->
<g id="edge18" class="edge">
<title>0&#45;&gt;25</title>
<path fill="none" stroke="#000000" d="M1834.7139,-283.3286C1885.2773,-278.6532 2031.4578,-264.7117 2152.469,-248.9931 2248.7738,-236.4837 2272.5811,-231.3758 2368.469,-215.9931 2398.0197,-211.2524 2431.753,-205.5494 2455.1953,-201.5396"/>
<polygon fill="#000000" stroke="#000000" points="2455.9253,-204.9656 2465.19,-199.8259 2454.7423,-198.0662 2455.9253,-204.9656"/>
<text text-anchor="middle" x="2265.469" y="-237.7931" font-family="Times,serif" font-size="14.00" fill="#000000">1/1</text>
</g>
<!-- 26 -->
<g id="node27" class="node">
<title>26</title>
<ellipse fill="none" stroke="#000000" cx="926.469" cy="-196.4948" rx="19.4965" ry="19.4965"/>
<text text-anchor="middle" x="926.469" y="-192.7948" font-family="Times,serif" font-size="14.00" fill="#000000">26</text>
</g>
<!-- 0&#45;&gt;26 -->
<g id="edge17" class="edge">
<title>0&#45;&gt;26</title>
<path fill="none" stroke="#000000" d="M1798.2324,-284.2578C1752.7098,-282.0846 1630.6795,-274.1776 1532.469,-248.9931 1514.881,-244.4829 1512.2386,-237.7241 1494.469,-233.9931 1391.3091,-212.3331 1125.1045,-228.7418 1020.469,-215.9931 998.3763,-213.3013 973.7553,-208.1124 955.2548,-203.764"/>
<polygon fill="#000000" stroke="#000000" points="955.9399,-200.329 945.3985,-201.3911 954.3014,-207.1345 955.9399,-200.329"/>
<text text-anchor="middle" x="1541.469" y="-237.7931" font-family="Times,serif" font-size="14.00" fill="#000000">1/1</text>
</g>
<!-- 27 -->
<g id="node28" class="node">
<title>27</title>
<ellipse fill="none" stroke="#000000" cx="1643.469" cy="-196.4948" rx="19.4965" ry="19.4965"/>
<text text-anchor="middle" x="1643.469" y="-192.7948" font-family="Times,serif" font-size="14.00" fill="#000000">27</text>
</g>
<!-- 0&#45;&gt;27 -->
<g id="edge16" class="edge">
<title>0&#45;&gt;27</title>
<path fill="none" stroke="#000000" d="M1801.5825,-274.8618C1785.2802,-264.0032 1758.1619,-246.6258 1733.469,-233.9931 1713.2524,-223.6504 1689.5084,-213.8499 1671.486,-206.8636"/>
<polygon fill="#000000" stroke="#000000" points="1672.7116,-203.5851 1662.121,-203.2863 1670.2137,-210.1243 1672.7116,-203.5851"/>
<text text-anchor="middle" x="1767.469" y="-237.7931" font-family="Times,serif" font-size="14.00" fill="#000000">1/1</text>
</g>
<!-- 28 -->
<g id="node29" class="node">
<title>28</title>
<ellipse fill="none" stroke="#000000" cx="1356.469" cy="-196.4948" rx="19.4965" ry="19.4965"/>
<text text-anchor="middle" x="1356.469" y="-192.7948" font-family="Times,serif" font-size="14.00" fill="#000000">28</text>
</g>
<!-- 0&#45;&gt;28 -->
<g id="edge15" class="edge">
<title>0&#45;&gt;28</title>
<path fill="none" stroke="#000000" d="M1798.4969,-282.9577C1769.9925,-279.2192 1713.1722,-269.6658 1669.469,-248.9931 1659.4249,-244.242 1659.8184,-238.0361 1649.469,-233.9931 1575.8172,-205.2207 1550.8332,-226.5523 1472.469,-215.9931 1442.8085,-211.9965 1409.0911,-206.1856 1385.6824,-201.9475"/>
<polygon fill="#000000" stroke="#000000" points="1386.1706,-198.4788 1375.7041,-200.1232 1384.9116,-205.3647 1386.1706,-198.4788"/>
<text text-anchor="middle" x="1678.469" y="-237.7931" font-family="Times,serif" font-size="14.00" fill="#000000">1/1</text>
</g>
<!-- 29 -->
<g id="node30" class="node">
<title>29</title>
<ellipse fill="none" stroke="#000000" cx="3324.469" cy="-196.4948" rx="19.4965" ry="19.4965"/>
<text text-anchor="middle" x="3324.469" y="-192.7948" font-family="Times,serif" font-size="14.00" fill="#000000">29</text>
</g>
<!-- 0&#45;&gt;29 -->
<g id="edge14" class="edge">
<title>0&#45;&gt;29</title>
<path fill="none" stroke="#000000" d="M1834.6777,-284.7265C1963.7391,-282.7925 2741.9926,-270.38 2977.469,-248.9931 3095.9599,-238.2313 3235.5862,-213.3412 3295.1594,-202.1385"/>
<polygon fill="#000000" stroke="#000000" points="3295.8281,-205.5742 3305.0023,-200.2747 3294.5257,-198.6964 3295.8281,-205.5742"/>
<text text-anchor="middle" x="3110.469" y="-237.7931" font-family="Times,serif" font-size="14.00" fill="#000000">1/1</text>
</g>
<!-- 30 -->
<g id="node31" class="node">
<title>30</title>
<ellipse fill="none" stroke="#000000" cx="2340.469" cy="-196.4948" rx="19.4965" ry="19.4965"/>
<text text-anchor="middle" x="2340.469" y="-192.7948" font-family="Times,serif" font-size="14.00" fill="#000000">30</text>
</g>
<!-- 0&#45;&gt;30 -->
<g id="edge13" class="edge">
<title>0&#45;&gt;30</title>
<path fill="none" stroke="#000000" d="M1834.4802,-282.4076C1873.8803,-276.7136 1970.6632,-262.5192 2051.469,-248.9931 2146.7519,-233.0436 2259.2802,-211.9498 2311.3481,-202.0603"/>
<polygon fill="#000000" stroke="#000000" points="2312.0537,-205.489 2321.2232,-200.1813 2310.7452,-198.6123 2312.0537,-205.489"/>
<text text-anchor="middle" x="2139.469" y="-237.7931" font-family="Times,serif" font-size="14.00" fill="#000000">1/1</text>
</g>
<!-- 31 -->
<g id="node32" class="node">
<title>31</title>
<ellipse fill="none" stroke="#000000" cx="2627.469" cy="-196.4948" rx="19.4965" ry="19.4965"/>
<text text-anchor="middle" x="2627.469" y="-192.7948" font-family="Times,serif" font-size="14.00" fill="#000000">31</text>
</g>
<!-- 0&#45;&gt;31 -->
<g id="edge12" class="edge">
<title>0&#45;&gt;31</title>
<path fill="none" stroke="#000000" d="M1834.559,-283.9904C1896.5545,-280.4673 2106.1237,-267.8418 2278.469,-248.9931 2382.8755,-237.5745 2408.6833,-232.1065 2512.469,-215.9931 2541.6218,-211.4669 2574.8379,-205.7775 2598.0509,-201.7148"/>
<polygon fill="#000000" stroke="#000000" points="2598.7189,-205.1511 2607.9619,-199.9726 2597.5069,-198.2568 2598.7189,-205.1511"/>
<text text-anchor="middle" x="2404.469" y="-237.7931" font-family="Times,serif" font-size="14.00" fill="#000000">1/1</text>
</g>
<!-- 32 -->
<g id="node33" class="node">
<title>32</title>
<ellipse fill="none" stroke="#000000" cx="2197.469" cy="-196.4948" rx="19.4965" ry="19.4965"/>
<text text-anchor="middle" x="2197.469" y="-192.7948" font-family="Times,serif" font-size="14.00" fill="#000000">32</text>
</g>
<!-- 0&#45;&gt;32 -->
<g id="edge11" class="edge">
<title>0&#45;&gt;32</title>
<path fill="none" stroke="#000000" d="M1834.0813,-280.9021C1894.3408,-266.9051 2092.6951,-220.8316 2168.0607,-203.3257"/>
<polygon fill="#000000" stroke="#000000" points="2169.3079,-206.6293 2178.2567,-200.9574 2167.7241,-199.8108 2169.3079,-206.6293"/>
<text text-anchor="middle" x="2038.469" y="-237.7931" font-family="Times,serif" font-size="14.00" fill="#000000">1/1</text>
</g>
<!-- 33 -->
<g id="node34" class="node">
<title>33</title>
<ellipse fill="none" stroke="#000000" cx="1889.469" cy="-196.4948" rx="19.4965" ry="19.4965"/>
<text text-anchor="middle" x="1889.469" y="-192.7948" font-family="Times,serif" font-size="14.00" fill="#000000">33</text>
</g>
<!-- 0&#45;&gt;33 -->
<g id="edge10" class="edge">
<title>0&#45;&gt;33</title>
<path fill="none" stroke="#000000" d="M1828.1977,-270.7743C1839.5923,-256.9606 1857.0851,-235.7539 1870.4672,-219.5307"/>
<polygon fill="#000000" stroke="#000000" points="1873.3731,-221.5082 1877.0364,-211.5669 1867.9732,-217.0539 1873.3731,-221.5082"/>
<text text-anchor="middle" x="1865.469" y="-237.7931" font-family="Times,serif" font-size="14.00" fill="#000000">1/1</text>
</g>
<!-- 34 -->
<g id="node35" class="node">
<title>34</title>
<ellipse fill="none" stroke="#000000" cx="3160.469" cy="-196.4948" rx="19.4965" ry="19.4965"/>
<text text-anchor="middle" x="3160.469" y="-192.7948" font-family="Times,serif" font-size="14.00" fill="#000000">34</text>
</g>
<!-- 0&#45;&gt;34 -->
<g id="edge9" class="edge">
<title>0&#45;&gt;34</title>
<path fill="none" stroke="#000000" d="M1834.8042,-284.6657C1955.2797,-282.4668 2635.0258,-269.3166 2841.469,-248.9931 2949.0426,-238.4029 3075.2998,-214.0352 3131.248,-202.6131"/>
<polygon fill="#000000" stroke="#000000" points="3132.0758,-206.0162 3141.1655,-200.5731 3130.6654,-199.1597 3132.0758,-206.0162"/>
<text text-anchor="middle" x="2964.469" y="-237.7931" font-family="Times,serif" font-size="14.00" fill="#000000">1/1</text>
</g>
<!-- 35 -->
<g id="node36" class="node">
<title>35</title>
<ellipse fill="none" stroke="#000000" cx="2053.469" cy="-196.4948" rx="19.4965" ry="19.4965"/>
<text text-anchor="middle" x="2053.469" y="-192.7948" font-family="Times,serif" font-size="14.00" fill="#000000">35</text>
</g>
<!-- 0&#45;&gt;35 -->
<g id="edge8" class="edge">
<title>0&#45;&gt;35</title>
<path fill="none" stroke="#000000" d="M1833.5134,-278.6285C1873.9268,-263.5377 1975.8812,-225.4669 2025.4907,-206.9422"/>
<polygon fill="#000000" stroke="#000000" points="2026.8177,-210.1828 2034.9615,-203.4057 2024.3689,-203.6251 2026.8177,-210.1828"/>
<text text-anchor="middle" x="1957.469" y="-237.7931" font-family="Times,serif" font-size="14.00" fill="#000000">1/1</text>
</g>
<!-- 36 -->
<g id="node37" class="node">
<title>36</title>
<ellipse fill="none" stroke="#000000" cx="659.469" cy="-196.4948" rx="19.4965" ry="19.4965"/>
<text text-anchor="middle" x="659.469" y="-192.7948" font-family="Times,serif" font-size="14.00" fill="#000000">36</text>
</g>
<!-- 0&#45;&gt;36 -->
<g id="edge7" class="edge">
<title>0&#45;&gt;36</title>
<path fill="none" stroke="#000000" d="M1798.3212,-283.9321C1739.7164,-280.4018 1550.279,-268.177 1394.469,-248.9931 1352.9153,-243.8768 1343.1395,-238.0504 1301.469,-233.9931 1068.6553,-211.3249 1008.2064,-239.4316 775.469,-215.9931 745.6911,-212.9942 711.9907,-207.0387 688.6181,-202.4946"/>
<polygon fill="#000000" stroke="#000000" points="689.1467,-199.0314 678.6572,-200.5218 687.7867,-205.898 689.1467,-199.0314"/>
<text text-anchor="middle" x="1403.469" y="-237.7931" font-family="Times,serif" font-size="14.00" fill="#000000">1/1</text>
</g>
<!-- 37 -->
<g id="node38" class="node">
<title>37</title>
<ellipse fill="none" stroke="#000000" cx="803.469" cy="-196.4948" rx="19.4965" ry="19.4965"/>
<text text-anchor="middle" x="803.469" y="-192.7948" font-family="Times,serif" font-size="14.00" fill="#000000">37</text>
</g>
<!-- 0&#45;&gt;37 -->
<g id="edge6" class="edge">
<title>0&#45;&gt;37</title>
<path fill="none" stroke="#000000" d="M1798.4201,-284.1077C1747.0646,-281.3735 1595.8747,-271.8309 1472.469,-248.9931 1447.1329,-244.3043 1441.9527,-237.7983 1416.469,-233.9931 1188.6338,-199.9729 1127.2124,-243.2463 898.469,-215.9931 876.1438,-213.3332 851.2607,-208.1429 832.5627,-203.7858"/>
<polygon fill="#000000" stroke="#000000" points="833.1406,-200.3255 822.6011,-201.4074 831.5149,-207.1341 833.1406,-200.3255"/>
<text text-anchor="middle" x="1481.469" y="-237.7931" font-family="Times,serif" font-size="14.00" fill="#000000">1/1</text>
</g>
<!-- 38 -->
<g id="node39" class="node">
<title>38</title>
<ellipse fill="none" stroke="#000000" cx="1192.469" cy="-196.4948" rx="19.4965" ry="19.4965"/>
<text text-anchor="middle" x="1192.469" y="-192.7948" font-family="Times,serif" font-size="14.00" fill="#000000">38</text>
</g>
<!-- 0&#45;&gt;38 -->
<g id="edge5" class="edge">
<title>0&#45;&gt;38</title>
<path fill="none" stroke="#000000" d="M1798.3603,-283.883C1763.9227,-281.2712 1687.1085,-273.0259 1627.469,-248.9931 1616.1495,-244.4317 1616.0477,-237.8496 1604.469,-233.9931 1546.1549,-214.5704 1389.602,-222.3592 1328.469,-215.9931 1291.6074,-212.1545 1249.3928,-205.7929 1221.9017,-201.3849"/>
<polygon fill="#000000" stroke="#000000" points="1222.2105,-197.8893 1211.7791,-199.7432 1221.0898,-204.799 1222.2105,-197.8893"/>
<text text-anchor="middle" x="1636.469" y="-237.7931" font-family="Times,serif" font-size="14.00" fill="#000000">1/1</text>
</g>
<!-- 1 -->
<g id="node2" class="node">
<title>1</title>
<ellipse fill="none" stroke="#000000" cx="1529.469" cy="-18" rx="18" ry="18"/>
<text text-anchor="middle" x="1529.469" y="-14.3" font-family="Times,serif" font-size="14.00" fill="#000000">1</text>
</g>
<!-- 2 -->
<g id="node3" class="node">
<title>2</title>
<ellipse fill="none" stroke="#000000" cx="371.469" cy="-106.4983" rx="18" ry="18"/>
<text text-anchor="middle" x="371.469" y="-102.7983" font-family="Times,serif" font-size="14.00" fill="#000000">2</text>
</g>
<!-- 2&#45;&gt;1 -->
<g id="edge125" class="edge">
<title>2&#45;&gt;1</title>
<path fill="none" stroke="#000000" d="M388.9013,-101.4793C405.3909,-96.9407 430.9046,-90.4564 453.469,-87 664.4444,-54.683 1353.3693,-25.1891 1501.3229,-19.1327"/>
<polygon fill="#000000" stroke="#000000" points="1501.549,-22.6265 1511.3982,-18.7224 1501.264,-15.6323 1501.549,-22.6265"/>
<text text-anchor="middle" x="828.469" y="-57.8" font-family="Times,serif" font-size="14.00" fill="#000000">2/2</text>
</g>
<!-- 3 -->
<g id="node4" class="node">
<title>3</title>
<ellipse fill="none" stroke="#000000" cx="480.469" cy="-106.4983" rx="18" ry="18"/>
<text text-anchor="middle" x="480.469" y="-102.7983" font-family="Times,serif" font-size="14.00" fill="#000000">3</text>
</g>
<!-- 3&#45;&gt;1 -->
<g id="edge124" class="edge">
<title>3&#45;&gt;1</title>
<path fill="none" stroke="#000000" d="M498.6763,-104.9622C623.1505,-94.461 1348.2626,-33.2874 1501.1674,-20.3876"/>
<polygon fill="#000000" stroke="#000000" points="1501.5013,-23.872 1511.1716,-19.5436 1500.9127,-16.8968 1501.5013,-23.872"/>
<text text-anchor="middle" x="1108.469" y="-57.8" font-family="Times,serif" font-size="14.00" fill="#000000">2/4</text>
</g>
<!-- 4 -->
<g id="node5" class="node">
<title>4</title>
<ellipse fill="none" stroke="#000000" cx="1093.469" cy="-106.4983" rx="18" ry="18"/>
<text text-anchor="middle" x="1093.469" y="-102.7983" font-family="Times,serif" font-size="14.00" fill="#000000">4</text>
</g>
<!-- 4&#45;&gt;1 -->
<g id="edge123" class="edge">
<title>4&#45;&gt;1</title>
<path fill="none" stroke="#000000" d="M1111.3736,-102.864C1179.0728,-89.1226 1419.7227,-40.276 1501.8041,-23.6154"/>
<polygon fill="#000000" stroke="#000000" points="1502.5519,-27.035 1511.6558,-21.6157 1501.1594,-20.1749 1502.5519,-27.035"/>
<text text-anchor="middle" x="1360.469" y="-57.8" font-family="Times,serif" font-size="14.00" fill="#000000">3/3</text>
</g>
<!-- 5 -->
<g id="node6" class="node">
<title>5</title>
<ellipse fill="none" stroke="#000000" cx="2832.469" cy="-106.4983" rx="18" ry="18"/>
<text text-anchor="middle" x="2832.469" y="-102.7983" font-family="Times,serif" font-size="14.00" fill="#000000">5</text>
</g>
<!-- 5&#45;&gt;1 -->
<g id="edge122" class="edge">
<title>5&#45;&gt;1</title>
<path fill="none" stroke="#000000" d="M2814.2252,-103.9951C2751.6854,-95.5119 2540.1335,-67.6233 2364.469,-54 2048.6997,-29.5112 1664.3661,-20.6109 1557.951,-18.5195"/>
<polygon fill="#000000" stroke="#000000" points="1557.7781,-15.0156 1547.7127,-18.3227 1557.6435,-22.0143 1557.7781,-15.0156"/>
<text text-anchor="middle" x="2527.469" y="-57.8" font-family="Times,serif" font-size="14.00" fill="#000000">5/5</text>
</g>
<!-- 6 -->
<g id="node7" class="node">
<title>6</title>
<ellipse fill="none" stroke="#000000" cx="1909.469" cy="-106.4983" rx="18" ry="18"/>
<text text-anchor="middle" x="1909.469" y="-102.7983" font-family="Times,serif" font-size="14.00" fill="#000000">6</text>
</g>
<!-- 6&#45;&gt;1 -->
<g id="edge121" class="edge">
<title>6&#45;&gt;1</title>
<path fill="none" stroke="#000000" d="M1891.9029,-102.4073C1831.3842,-88.3131 1631.2136,-41.6953 1557.252,-24.4704"/>
<polygon fill="#000000" stroke="#000000" points="1557.8203,-21.0091 1547.287,-22.1496 1556.2325,-27.8267 1557.8203,-21.0091"/>
<text text-anchor="middle" x="1750.469" y="-57.8" font-family="Times,serif" font-size="14.00" fill="#000000">1/6</text>
</g>
<!-- 7 -->
<g id="node8" class="node">
<title>7</title>
<ellipse fill="none" stroke="#000000" cx="2356.469" cy="-106.4983" rx="18" ry="18"/>
<text text-anchor="middle" x="2356.469" y="-102.7983" font-family="Times,serif" font-size="14.00" fill="#000000">7</text>
</g>
<!-- 7&#45;&gt;1 -->
<g id="edge120" class="edge">
<title>7&#45;&gt;1</title>
<path fill="none" stroke="#000000" d="M2339.1164,-100.7702C2325.0691,-96.3513 2304.6934,-90.4316 2286.469,-87 2005.5241,-34.0986 1657.9917,-21.3197 1557.7409,-18.6403"/>
<polygon fill="#000000" stroke="#000000" points="1557.6115,-15.136 1547.5256,-18.38 1557.4331,-22.1337 1557.6115,-15.136"/>
<text text-anchor="middle" x="2175.969" y="-57.8" font-family="Times,serif" font-size="14.00" fill="#000000">3/11</text>
</g>
<!-- 8 -->
<g id="node9" class="node">
<title>8</title>
<ellipse fill="none" stroke="#000000" cx="2259.469" cy="-106.4983" rx="18" ry="18"/>
<text text-anchor="middle" x="2259.469" y="-102.7983" font-family="Times,serif" font-size="14.00" fill="#000000">8</text>
</g>
<!-- 8&#45;&gt;1 -->
<g id="edge119" class="edge">
<title>8&#45;&gt;1</title>
<path fill="none" stroke="#000000" d="M2241.4239,-104.3107C2143.6975,-92.4632 1677.8197,-35.9846 1557.7492,-21.4284"/>
<polygon fill="#000000" stroke="#000000" points="1557.8853,-17.9194 1547.5368,-20.1904 1557.0428,-24.8685 1557.8853,-17.9194"/>
<text text-anchor="middle" x="1946.469" y="-57.8" font-family="Times,serif" font-size="14.00" fill="#000000">1/5</text>
</g>
<!-- 9 -->
<g id="node10" class="node">
<title>9</title>
<ellipse fill="none" stroke="#000000" cx="2410.469" cy="-106.4983" rx="18" ry="18"/>
<text text-anchor="middle" x="2410.469" y="-102.7983" font-family="Times,serif" font-size="14.00" fill="#000000">9</text>
</g>
<!-- 9&#45;&gt;1 -->
<g id="edge118" class="edge">
<title>9&#45;&gt;1</title>
<path fill="none" stroke="#000000" d="M2396.6264,-94.6741C2392.6033,-91.7617 2388.0523,-88.9284 2383.469,-87 2304.0646,-53.5907 2278.0694,-63.6852 2192.469,-54 1947.8416,-26.3217 1649.944,-19.7696 1557.9123,-18.358"/>
<polygon fill="#000000" stroke="#000000" points="1557.7767,-14.8558 1547.7269,-18.2103 1557.6751,-21.855 1557.7767,-14.8558"/>
<text text-anchor="middle" x="2344.969" y="-57.8" font-family="Times,serif" font-size="14.00" fill="#000000">1/100</text>
</g>
<!-- 10 -->
<g id="node11" class="node">
<title>10</title>
<ellipse fill="none" stroke="#000000" cx="1529.469" cy="-106.4983" rx="19.4965" ry="19.4965"/>
<text text-anchor="middle" x="1529.469" y="-102.7983" font-family="Times,serif" font-size="14.00" fill="#000000">10</text>
</g>
<!-- 10&#45;&gt;1 -->
<g id="edge117" class="edge">
<title>10&#45;&gt;1</title>
<path fill="none" stroke="#000000" d="M1529.469,-86.8576C1529.469,-74.8837 1529.469,-59.3847 1529.469,-46.1239"/>
<polygon fill="#000000" stroke="#000000" points="1532.9691,-46.079 1529.469,-36.0791 1525.9691,-46.0791 1532.9691,-46.079"/>
<text text-anchor="middle" x="1538.469" y="-57.8" font-family="Times,serif" font-size="14.00" fill="#000000">2/6</text>
</g>
<!-- 11 -->
<g id="node12" class="node">
<title>11</title>
<ellipse fill="none" stroke="#000000" cx="857.469" cy="-106.4983" rx="19.4965" ry="19.4965"/>
<text text-anchor="middle" x="857.469" y="-102.7983" font-family="Times,serif" font-size="14.00" fill="#000000">11</text>
</g>
<!-- 11&#45;&gt;1 -->
<g id="edge116" class="edge">
<title>11&#45;&gt;1</title>
<path fill="none" stroke="#000000" d="M876.8559,-103.9451C971.928,-91.4247 1388.8284,-36.5215 1501.381,-21.699"/>
<polygon fill="#000000" stroke="#000000" points="1502.132,-25.1304 1511.5894,-20.3546 1501.218,-18.1903 1502.132,-25.1304"/>
<text text-anchor="middle" x="1263.469" y="-57.8" font-family="Times,serif" font-size="14.00" fill="#000000">3/4</text>
</g>
<!-- 12 -->
<g id="node13" class="node">
<title>12</title>
<ellipse fill="none" stroke="#000000" cx="1376.469" cy="-106.4983" rx="19.4965" ry="19.4965"/>
<text text-anchor="middle" x="1376.469" y="-102.7983" font-family="Times,serif" font-size="14.00" fill="#000000">12</text>
</g>
<!-- 12&#45;&gt;1 -->
<g id="edge115" class="edge">
<title>12&#45;&gt;1</title>
<path fill="none" stroke="#000000" d="M1393.4272,-96.6893C1420.5029,-81.0282 1473.6205,-50.3039 1504.871,-32.228"/>
<polygon fill="#000000" stroke="#000000" points="1506.9105,-35.0917 1513.8143,-27.055 1503.4056,-29.0323 1506.9105,-35.0917"/>
<text text-anchor="middle" x="1476.469" y="-57.8" font-family="Times,serif" font-size="14.00" fill="#000000">3/5</text>
</g>
<!-- 13&#45;&gt;3 -->
<g id="edge114" class="edge">
<title>13&#45;&gt;3</title>
<path fill="none" stroke="#000000" d="M1762.5917,-182.4938C1748.9068,-169.7413 1726.7178,-151.7533 1703.469,-143.9965 1657.3997,-128.6258 877.9994,-127.8514 829.469,-125.9965 710.1565,-121.4364 568.0898,-112.3682 508.7231,-108.4151"/>
<polygon fill="#000000" stroke="#000000" points="508.8362,-104.915 498.6246,-107.7388 508.3683,-111.8993 508.8362,-104.915"/>
<text text-anchor="middle" x="1740.469" y="-147.7965" font-family="Times,serif" font-size="14.00" fill="#000000">1/1</text>
</g>
<!-- 13&#45;&gt;6 -->
<g id="edge113" class="edge">
<title>13&#45;&gt;6</title>
<path fill="none" stroke="#000000" d="M1767.1335,-178.7786C1762.7282,-167.7372 1759.9079,-153.8136 1767.469,-143.9965 1781.2404,-126.1164 1843.8673,-115.0338 1881.1969,-109.8975"/>
<polygon fill="#000000" stroke="#000000" points="1881.9828,-113.3244 1891.4407,-108.5495 1881.0695,-106.3842 1881.9828,-113.3244"/>
<text text-anchor="middle" x="1776.469" y="-147.7965" font-family="Times,serif" font-size="14.00" fill="#000000">0/1</text>
</g>
<!-- 13&#45;&gt;7 -->
<g id="edge112" class="edge">
<title>13&#45;&gt;7</title>
<path fill="none" stroke="#000000" d="M1782.6078,-177.806C1787.578,-165.9105 1795.8556,-151.3956 1808.469,-143.9965 1854.3123,-117.1045 2233.9545,-134.1833 2286.469,-125.9965 2301.0256,-123.7272 2316.8683,-119.4708 2329.7944,-115.5124"/>
<polygon fill="#000000" stroke="#000000" points="2330.9832,-118.8073 2339.4554,-112.4455 2328.8651,-112.1354 2330.9832,-118.8073"/>
<text text-anchor="middle" x="1817.469" y="-147.7965" font-family="Times,serif" font-size="14.00" fill="#000000">0/1</text>
</g>
<!-- 14&#45;&gt;2 -->
<g id="edge111" class="edge">
<title>14&#45;&gt;2</title>
<path fill="none" stroke="#000000" d="M1033.498,-183.5185C1017.7638,-170.7731 991.6974,-152.0973 965.469,-143.9965 856.691,-110.3998 566.292,-141.2399 453.469,-125.9965 434.9119,-123.4893 414.4174,-118.6165 398.5594,-114.3696"/>
<polygon fill="#000000" stroke="#000000" points="399.4455,-110.9834 388.8749,-111.7004 397.5854,-117.7318 399.4455,-110.9834"/>
<text text-anchor="middle" x="1006.469" y="-147.7965" font-family="Times,serif" font-size="14.00" fill="#000000">1/1</text>
</g>
<!-- 14&#45;&gt;8 -->
<g id="edge110" class="edge">
<title>14&#45;&gt;8</title>
<path fill="none" stroke="#000000" d="M1049.7739,-177.0157C1051.6647,-165.4272 1056.1188,-151.5524 1066.469,-143.9965 1085.9921,-129.7444 1912.317,-126.975 1936.469,-125.9965 2045.401,-121.5835 2174.7916,-112.6564 2231.0256,-108.5951"/>
<polygon fill="#000000" stroke="#000000" points="2231.5493,-112.0663 2241.2692,-107.8505 2231.0417,-105.0848 2231.5493,-112.0663"/>
<text text-anchor="middle" x="1075.469" y="-147.7965" font-family="Times,serif" font-size="14.00" fill="#000000">0/1</text>
</g>
<!-- 14&#45;&gt;10 -->
<g id="edge109" class="edge">
<title>14&#45;&gt;10</title>
<path fill="none" stroke="#000000" d="M1035.5516,-181.42C1027.2581,-169.8751 1019.7052,-154.2403 1029.469,-143.9965 1043.8594,-128.8988 1383.7187,-128.1068 1404.469,-125.9965 1437.3549,-122.6521 1474.7761,-116.501 1500.0342,-111.9993"/>
<polygon fill="#000000" stroke="#000000" points="1500.8489,-115.4088 1510.0657,-110.1839 1499.6023,-108.5207 1500.8489,-115.4088"/>
<text text-anchor="middle" x="1038.469" y="-147.7965" font-family="Times,serif" font-size="14.00" fill="#000000">0/1</text>
</g>
<!-- 15&#45;&gt;5 -->
<g id="edge108" class="edge">
<title>15&#45;&gt;5</title>
<path fill="none" stroke="#000000" d="M3525.2659,-186.3088C3541.3505,-175.339 3561.4047,-157.6274 3548.469,-143.9965 3524.4021,-118.6362 2990.9605,-108.9058 2860.8809,-106.9055"/>
<polygon fill="#000000" stroke="#000000" points="2860.6093,-103.4011 2850.5577,-106.7501 2860.5039,-110.4003 2860.6093,-103.4011"/>
<text text-anchor="middle" x="3561.469" y="-147.7965" font-family="Times,serif" font-size="14.00" fill="#000000">1/1</text>
</g>
<!-- 15&#45;&gt;7 -->
<g id="edge107" class="edge">
<title>15&#45;&gt;7</title>
<path fill="none" stroke="#000000" d="M3495.4929,-181.7598C3483.2648,-169.0621 3463.6918,-151.6108 3442.469,-143.9965 3331.6988,-104.2549 2495.1333,-163.1521 2383.469,-125.9965 2381.8094,-125.4443 2380.165,-124.7504 2378.5554,-123.9559"/>
<polygon fill="#000000" stroke="#000000" points="2380.203,-120.86 2369.8535,-118.593 2376.5304,-126.8192 2380.203,-120.86"/>
<text text-anchor="middle" x="3477.469" y="-147.7965" font-family="Times,serif" font-size="14.00" fill="#000000">0/1</text>
</g>
<!-- 15&#45;&gt;9 -->
<g id="edge106" class="edge">
<title>15&#45;&gt;9</title>
<path fill="none" stroke="#000000" d="M3513.916,-177.7398C3515.9499,-166.4318 3516.0138,-152.5978 3507.469,-143.9965 3493.7214,-130.1581 2824.9617,-126.7275 2805.469,-125.9965 2667.9669,-120.8407 2503.679,-111.808 2438.809,-108.128"/>
<polygon fill="#000000" stroke="#000000" points="2438.7561,-104.6194 2428.5732,-107.5449 2438.3579,-111.6081 2438.7561,-104.6194"/>
<text text-anchor="middle" x="3522.469" y="-147.7965" font-family="Times,serif" font-size="14.00" fill="#000000">0/1</text>
</g>
<!-- 16&#45;&gt;2 -->
<g id="edge105" class="edge">
<title>16&#45;&gt;2</title>
<path fill="none" stroke="#000000" d="M168.9055,-189.7349C145.9138,-180.3648 111.6057,-162.484 127.469,-143.9965 141.3901,-127.7726 281.8242,-114.0603 343.1125,-108.7995"/>
<polygon fill="#000000" stroke="#000000" points="343.5811,-112.2725 353.2516,-107.9445 342.9929,-105.2972 343.5811,-112.2725"/>
<text text-anchor="middle" x="136.469" y="-147.7965" font-family="Times,serif" font-size="14.00" fill="#000000">1/1</text>
</g>
<!-- 16&#45;&gt;3 -->
<g id="edge104" class="edge">
<title>16&#45;&gt;3</title>
<path fill="none" stroke="#000000" d="M174.6377,-181.5009C166.3917,-170.0006 158.8606,-154.3862 168.469,-143.9965 185.8733,-125.177 373.1457,-129.9735 398.469,-125.9965 416.968,-123.0913 437.4625,-118.2184 453.335,-114.071"/>
<polygon fill="#000000" stroke="#000000" points="454.2743,-117.4429 463.0306,-111.4783 452.4659,-110.6805 454.2743,-117.4429"/>
<text text-anchor="middle" x="177.469" y="-147.7965" font-family="Times,serif" font-size="14.00" fill="#000000">0/1</text>
</g>
<!-- 16&#45;&gt;12 -->
<g id="edge103" class="edge">
<title>16&#45;&gt;12</title>
<path fill="none" stroke="#000000" d="M195.2085,-178.4254C201.4566,-166.3169 211.513,-151.3009 225.469,-143.9965 269.5311,-120.935 1070.7941,-128.3859 1120.469,-125.9965 1202.458,-122.0528 1298.9617,-113.6931 1346.6704,-109.3116"/>
<polygon fill="#000000" stroke="#000000" points="1347.2664,-112.7714 1356.901,-108.364 1346.6208,-105.8013 1347.2664,-112.7714"/>
<text text-anchor="middle" x="234.469" y="-147.7965" font-family="Times,serif" font-size="14.00" fill="#000000">0/1</text>
</g>
<!-- 17&#45;&gt;2 -->
<g id="edge100" class="edge">
<title>17&#45;&gt;2</title>
<path fill="none" stroke="#000000" d="M311.9891,-192.3792C282.5673,-185.2557 232.0759,-168.9528 250.469,-143.9965 261.547,-128.9656 311.1649,-117.3767 343.3217,-111.2768"/>
<polygon fill="#000000" stroke="#000000" points="344.2686,-114.6618 353.4768,-109.4215 343.0105,-107.7758 344.2686,-114.6618"/>
<text text-anchor="middle" x="259.469" y="-147.7965" font-family="Times,serif" font-size="14.00" fill="#000000">0/1</text>
</g>
<!-- 17&#45;&gt;3 -->
<g id="edge99" class="edge">
<title>17&#45;&gt;3</title>
<path fill="none" stroke="#000000" d="M314.6922,-186.3895C298.9218,-175.6409 279.4073,-158.2568 291.469,-143.9965 307.0404,-125.5869 374.838,-130.7882 398.469,-125.9965 416.8212,-122.2753 437.3157,-117.4022 453.2249,-113.4587"/>
<polygon fill="#000000" stroke="#000000" points="454.0989,-116.8479 462.9487,-111.0229 452.398,-110.0577 454.0989,-116.8479"/>
<text text-anchor="middle" x="300.469" y="-147.7965" font-family="Times,serif" font-size="14.00" fill="#000000">0/1</text>
</g>
<!-- 17&#45;&gt;4 -->
<g id="edge102" class="edge">
<title>17&#45;&gt;4</title>
<path fill="none" stroke="#000000" d="M326.0426,-177.7602C324.0166,-166.4601 323.9539,-152.6273 332.469,-143.9965 354.0573,-122.115 854.7915,-127.9319 885.469,-125.9965 949.9602,-121.928 1025.4313,-114.0784 1065.3625,-109.6813"/>
<polygon fill="#000000" stroke="#000000" points="1065.8613,-113.1475 1075.4136,-108.5645 1065.0882,-106.1903 1065.8613,-113.1475"/>
<text text-anchor="middle" x="341.469" y="-147.7965" font-family="Times,serif" font-size="14.00" fill="#000000">1/1</text>
</g>
<!-- 17&#45;&gt;12 -->
<g id="edge101" class="edge">
<title>17&#45;&gt;12</title>
<path fill="none" stroke="#000000" d="M343.3355,-180.8344C353.8895,-168.2803 370.5507,-151.5557 389.469,-143.9965 427.1925,-128.9234 1079.897,-128.0398 1120.469,-125.9965 1202.4489,-121.8679 1298.9566,-113.5894 1346.6682,-109.2679"/>
<polygon fill="#000000" stroke="#000000" points="1347.2592,-112.7286 1356.8995,-108.3339 1346.6227,-105.7576 1347.2592,-112.7286"/>
<text text-anchor="middle" x="398.469" y="-147.7965" font-family="Times,serif" font-size="14.00" fill="#000000">0/1</text>
</g>
<!-- 18&#45;&gt;5 -->
<g id="edge97" class="edge">
<title>18&#45;&gt;5</title>
<path fill="none" stroke="#000000" d="M1501.4238,-176.7813C1503.1127,-165.2565 1507.3152,-151.5344 1517.469,-143.9965 1537.9923,-128.7607 2411.9237,-126.8767 2437.469,-125.9965 2574.9861,-121.2582 2739.2656,-111.9894 2804.1311,-108.1871"/>
<polygon fill="#000000" stroke="#000000" points="2804.5894,-111.6663 2814.3662,-107.584 2804.1776,-104.6784 2804.5894,-111.6663"/>
<text text-anchor="middle" x="1526.469" y="-147.7965" font-family="Times,serif" font-size="14.00" fill="#000000">0/1</text>
</g>
<!-- 18&#45;&gt;10 -->
<g id="edge98" class="edge">
<title>18&#45;&gt;10</title>
<path fill="none" stroke="#000000" d="M1487.8391,-181.0073C1480.7856,-170.3768 1474.5082,-156.0642 1480.469,-143.9965 1485.3079,-134.2001 1494.0697,-126.2573 1502.8601,-120.2461"/>
<polygon fill="#000000" stroke="#000000" points="1504.8596,-123.1247 1511.5159,-114.8818 1501.1721,-117.1747 1504.8596,-123.1247"/>
<text text-anchor="middle" x="1489.469" y="-147.7965" font-family="Times,serif" font-size="14.00" fill="#000000">1/1</text>
</g>
<!-- 18&#45;&gt;12 -->
<g id="edge96" class="edge">
<title>18&#45;&gt;12</title>
<path fill="none" stroke="#000000" d="M1484.512,-184.9136C1463.2136,-169.4556 1425.308,-141.9446 1400.532,-123.9627"/>
<polygon fill="#000000" stroke="#000000" points="1402.5137,-121.0763 1392.3647,-118.0351 1398.402,-126.7415 1402.5137,-121.0763"/>
<text text-anchor="middle" x="1455.469" y="-147.7965" font-family="Times,serif" font-size="14.00" fill="#000000">0/1</text>
</g>
<!-- 19&#45;&gt;9 -->
<g id="edge95" class="edge">
<title>19&#45;&gt;9</title>
<path fill="none" stroke="#000000" d="M3425.8786,-176.8497C3424.4051,-165.3507 3420.4635,-151.6316 3410.469,-143.9965 3383.7479,-123.5836 2839.0687,-127.3255 2805.469,-125.9965 2667.9778,-120.5583 2503.6837,-111.6854 2438.8105,-108.0881"/>
<polygon fill="#000000" stroke="#000000" points="2438.7532,-104.5796 2428.5742,-107.5184 2438.3642,-111.5688 2438.7532,-104.5796"/>
<text text-anchor="middle" x="3429.469" y="-147.7965" font-family="Times,serif" font-size="14.00" fill="#000000">1/1</text>
</g>
<!-- 20&#45;&gt;2 -->
<g id="edge93" class="edge">
<title>20&#45;&gt;2</title>
<path fill="none" stroke="#000000" d="M46.8919,-189.8259C23.3998,-180.4212 -12.1058,-162.3512 4.469,-143.9965 27.0632,-118.9762 260.7391,-109.7471 343.0057,-107.2586"/>
<polygon fill="#000000" stroke="#000000" points="343.2443,-110.7532 353.1381,-106.9633 343.0404,-103.7562 343.2443,-110.7532"/>
<text text-anchor="middle" x="13.469" y="-147.7965" font-family="Times,serif" font-size="14.00" fill="#000000">0/1</text>
</g>
<!-- 20&#45;&gt;3 -->
<g id="edge92" class="edge">
<title>20&#45;&gt;3</title>
<path fill="none" stroke="#000000" d="M52.4844,-181.9347C43.7636,-170.3717 35.5253,-154.4602 45.469,-143.9965 72.523,-115.5279 359.5922,-131.5623 398.469,-125.9965 417.0057,-123.3427 437.5002,-118.4699 453.3633,-114.2597"/>
<polygon fill="#000000" stroke="#000000" points="454.3243,-117.6255 463.0517,-111.6186 452.4832,-110.8719 454.3243,-117.6255"/>
<text text-anchor="middle" x="54.469" y="-147.7965" font-family="Times,serif" font-size="14.00" fill="#000000">0/1</text>
</g>
<!-- 20&#45;&gt;11 -->
<g id="edge94" class="edge">
<title>20&#45;&gt;11</title>
<path fill="none" stroke="#000000" d="M72.7394,-178.295C78.5807,-166.2917 88.04,-151.4555 101.469,-143.9965 140.9439,-122.0708 462.37,-128.2524 507.469,-125.9965 625.9158,-120.0718 766.8426,-111.8688 827.3913,-108.2891"/>
<polygon fill="#000000" stroke="#000000" points="827.9627,-111.7615 837.7382,-107.6761 827.5486,-104.7738 827.9627,-111.7615"/>
<text text-anchor="middle" x="110.469" y="-147.7965" font-family="Times,serif" font-size="14.00" fill="#000000">1/1</text>
</g>
<!-- 21&#45;&gt;5 -->
<g id="edge89" class="edge">
<title>21&#45;&gt;5</title>
<path fill="none" stroke="#000000" d="M2910.2574,-186.429C2925.4653,-176.0018 2944.0017,-159.1423 2933.469,-143.9965 2924.8428,-131.5924 2886.8805,-119.9103 2860.044,-112.9789"/>
<polygon fill="#000000" stroke="#000000" points="2860.5899,-109.5077 2850.0397,-110.4791 2858.893,-116.2989 2860.5899,-109.5077"/>
<text text-anchor="middle" x="2945.469" y="-147.7965" font-family="Times,serif" font-size="14.00" fill="#000000">0/1</text>
</g>
<!-- 21&#45;&gt;6 -->
<g id="edge91" class="edge">
<title>21&#45;&gt;6</title>
<path fill="none" stroke="#000000" d="M2881.6484,-180.613C2871.2958,-168.106 2855.0319,-151.563 2836.469,-143.9965 2774.2947,-118.6536 2299.5418,-129.0197 2232.469,-125.9965 2123.5582,-121.0876 1994.1566,-112.4165 1937.9162,-108.508"/>
<polygon fill="#000000" stroke="#000000" points="1937.8909,-104.9978 1927.6713,-107.7923 1937.403,-111.9808 1937.8909,-104.9978"/>
<text text-anchor="middle" x="2868.469" y="-147.7965" font-family="Times,serif" font-size="14.00" fill="#000000">1/1</text>
</g>
<!-- 21&#45;&gt;7 -->
<g id="edge90" class="edge">
<title>21&#45;&gt;7</title>
<path fill="none" stroke="#000000" d="M2898.9323,-177.5132C2900.9101,-166.2639 2900.908,-152.5743 2892.469,-143.9965 2872.6248,-123.8262 2410.2341,-135.1761 2383.469,-125.9965 2381.8145,-125.4291 2380.1741,-124.7235 2378.5674,-123.9204"/>
<polygon fill="#000000" stroke="#000000" points="2380.2173,-120.8254 2369.8728,-118.5359 2376.5317,-126.7766 2380.2173,-120.8254"/>
<text text-anchor="middle" x="2907.469" y="-147.7965" font-family="Times,serif" font-size="14.00" fill="#000000">0/1</text>
</g>
<!-- 22&#45;&gt;7 -->
<g id="edge87" class="edge">
<title>22&#45;&gt;7</title>
<path fill="none" stroke="#000000" d="M2776.4824,-177.4933C2778.2127,-166.2365 2777.9459,-152.546 2769.469,-143.9965 2739.2386,-113.5075 2424.0033,-140.1538 2383.469,-125.9965 2381.8177,-125.4198 2380.1797,-124.7071 2378.5749,-123.8987"/>
<polygon fill="#000000" stroke="#000000" points="2380.2263,-120.8043 2369.8849,-118.5009 2376.5328,-126.7505 2380.2263,-120.8043"/>
<text text-anchor="middle" x="2785.469" y="-147.7965" font-family="Times,serif" font-size="14.00" fill="#000000">0/1</text>
</g>
<!-- 22&#45;&gt;8 -->
<g id="edge88" class="edge">
<title>22&#45;&gt;8</title>
<path fill="none" stroke="#000000" d="M2760.4821,-180.3391C2750.6727,-166.4715 2736.6309,-148.0893 2728.469,-143.9965 2688.7988,-124.1039 2373.292,-132.9955 2329.469,-125.9965 2314.9209,-123.6731 2299.079,-119.4119 2286.1511,-115.4644"/>
<polygon fill="#000000" stroke="#000000" points="2287.0783,-112.0868 2276.4884,-112.4088 2284.9677,-118.7611 2287.0783,-112.0868"/>
<text text-anchor="middle" x="2752.469" y="-147.7965" font-family="Times,serif" font-size="14.00" fill="#000000">1/1</text>
</g>
<!-- 22&#45;&gt;9 -->
<g id="edge86" class="edge">
<title>22&#45;&gt;9</title>
<path fill="none" stroke="#000000" d="M2788.1038,-186.1612C2803.7115,-175.2219 2822.9298,-157.6801 2810.469,-143.9965 2785.5023,-116.5799 2526.0009,-108.8372 2438.8405,-107.0013"/>
<polygon fill="#000000" stroke="#000000" points="2438.7026,-103.4979 2428.6346,-106.7971 2438.5625,-110.4965 2438.7026,-103.4979"/>
<text text-anchor="middle" x="2823.469" y="-147.7965" font-family="Times,serif" font-size="14.00" fill="#000000">0/1</text>
</g>
<!-- 23&#45;&gt;5 -->
<g id="edge83" class="edge">
<title>23&#45;&gt;5</title>
<path fill="none" stroke="#000000" d="M3033.248,-186.3876C3049.0203,-175.6374 3068.5364,-158.252 3056.469,-143.9965 3043.9339,-129.1886 2918.2735,-114.9856 2860.8407,-109.2099"/>
<polygon fill="#000000" stroke="#000000" points="2860.931,-105.7018 2850.635,-108.2002 2860.2418,-112.6678 2860.931,-105.7018"/>
<text text-anchor="middle" x="3068.469" y="-147.7965" font-family="Times,serif" font-size="14.00" fill="#000000">0/1</text>
</g>
<!-- 23&#45;&gt;7 -->
<g id="edge85" class="edge">
<title>23&#45;&gt;7</title>
<path fill="none" stroke="#000000" d="M3021.9075,-177.7482C3023.9382,-166.4434 3024.0016,-152.61 3015.469,-143.9965 2990.749,-119.0424 2416.7335,-137.2775 2383.469,-125.9965 2381.8126,-125.4348 2380.1707,-124.7336 2378.5629,-123.9337"/>
<polygon fill="#000000" stroke="#000000" points="2380.2119,-120.8383 2369.8655,-118.5573 2376.5312,-126.7925 2380.2119,-120.8383"/>
<text text-anchor="middle" x="3030.469" y="-147.7965" font-family="Times,serif" font-size="14.00" fill="#000000">1/1</text>
</g>
<!-- 23&#45;&gt;10 -->
<g id="edge84" class="edge">
<title>23&#45;&gt;10</title>
<path fill="none" stroke="#000000" d="M3004.6177,-180.796C2994.073,-168.2184 2977.417,-151.481 2958.469,-143.9965 2902.8636,-122.0324 1942.2165,-128.1456 1882.469,-125.9965 1762.4007,-121.6778 1619.5613,-112.5636 1558.9744,-108.5125"/>
<polygon fill="#000000" stroke="#000000" points="1559.1859,-105.0189 1548.9735,-107.8397 1558.716,-112.0031 1559.1859,-105.0189"/>
<text text-anchor="middle" x="2990.469" y="-147.7965" font-family="Times,serif" font-size="14.00" fill="#000000">0/1</text>
</g>
<!-- 24&#45;&gt;3 -->
<g id="edge80" class="edge">
<title>24&#45;&gt;3</title>
<path fill="none" stroke="#000000" d="M475.8342,-193.521C456.4771,-189.4312 427.9032,-180.0198 414.469,-158.9965 401.9831,-139.4573 430.2063,-124.0013 453.5477,-115.0547"/>
<polygon fill="#000000" stroke="#000000" points="454.8855,-118.2933 463.1194,-111.626 452.5249,-111.7034 454.8855,-118.2933"/>
<text text-anchor="middle" x="423.469" y="-147.7965" font-family="Times,serif" font-size="14.00" fill="#000000">0/1</text>
</g>
<!-- 24&#45;&gt;10 -->
<g id="edge79" class="edge">
<title>24&#45;&gt;10</title>
<path fill="none" stroke="#000000" d="M503.2098,-178.4278C509.4585,-166.3204 519.515,-151.3048 533.469,-143.9965 576.3438,-121.5413 1356.2558,-130.2358 1404.469,-125.9965 1437.3975,-123.1012 1474.8112,-116.8713 1500.0559,-112.2282"/>
<polygon fill="#000000" stroke="#000000" points="1500.8971,-115.6315 1510.0815,-110.3497 1499.6079,-108.7513 1500.8971,-115.6315"/>
<text text-anchor="middle" x="542.469" y="-147.7965" font-family="Times,serif" font-size="14.00" fill="#000000">0/1</text>
</g>
<!-- 24&#45;&gt;11 -->
<g id="edge81" class="edge">
<title>24&#45;&gt;11</title>
<path fill="none" stroke="#000000" d="M478.7805,-186.4097C462.7887,-175.5261 442.8133,-157.8877 455.469,-143.9965 480.4497,-116.5772 738.9542,-108.8644 827.7298,-107.0155"/>
<polygon fill="#000000" stroke="#000000" points="827.9942,-110.5111 837.923,-106.8138 827.8556,-103.5124 827.9942,-110.5111"/>
<text text-anchor="middle" x="464.469" y="-147.7965" font-family="Times,serif" font-size="14.00" fill="#000000">0/1</text>
</g>
<!-- 24&#45;&gt;12 -->
<g id="edge82" class="edge">
<title>24&#45;&gt;12</title>
<path fill="none" stroke="#000000" d="M490.0315,-177.7492C488.0013,-166.4449 487.938,-152.6115 496.469,-143.9965 508.6704,-131.675 1103.1523,-126.9053 1120.469,-125.9965 1202.4401,-121.695 1298.9516,-113.4923 1346.6661,-109.227"/>
<polygon fill="#000000" stroke="#000000" points="1347.2523,-112.6885 1356.8981,-108.3057 1346.6245,-105.7167 1347.2523,-112.6885"/>
<text text-anchor="middle" x="505.469" y="-147.7965" font-family="Times,serif" font-size="14.00" fill="#000000">1/1</text>
</g>
<!-- 25&#45;&gt;5 -->
<g id="edge78" class="edge">
<title>25&#45;&gt;5</title>
<path fill="none" stroke="#000000" d="M2497.604,-181.3486C2509.1605,-169.1082 2527.1211,-152.5554 2546.469,-143.9965 2592.2641,-123.7384 2741.0541,-112.247 2803.9668,-108.1885"/>
<polygon fill="#000000" stroke="#000000" points="2804.5684,-111.6577 2814.3292,-107.5376 2804.1294,-104.6715 2804.5684,-111.6577"/>
<text text-anchor="middle" x="2555.469" y="-147.7965" font-family="Times,serif" font-size="14.00" fill="#000000">1/1</text>
</g>
<!-- 25&#45;&gt;6 -->
<g id="edge77" class="edge">
<title>25&#45;&gt;6</title>
<path fill="none" stroke="#000000" d="M2475.3218,-179.1084C2467.9326,-166.9958 2456.3277,-151.684 2441.469,-143.9965 2430.1767,-138.1542 2046.4259,-114.7208 1937.8373,-108.1935"/>
<polygon fill="#000000" stroke="#000000" points="1937.841,-104.6875 1927.6493,-107.5822 1937.4217,-111.675 1937.841,-104.6875"/>
<text text-anchor="middle" x="2468.469" y="-147.7965" font-family="Times,serif" font-size="14.00" fill="#000000">0/1</text>
</g>
<!-- 25&#45;&gt;8 -->
<g id="edge76" class="edge">
<title>25&#45;&gt;8</title>
<path fill="none" stroke="#000000" d="M2489.3037,-177.4454C2490.9111,-166.3138 2490.5774,-152.7725 2482.469,-143.9965 2459.2368,-118.8517 2363.0587,-132.6094 2329.469,-125.9965 2315.1117,-123.17 2299.3942,-118.902 2286.4966,-115.0789"/>
<polygon fill="#000000" stroke="#000000" points="2287.4229,-111.7025 2276.8373,-112.1444 2285.3881,-118.4002 2287.4229,-111.7025"/>
<text text-anchor="middle" x="2497.469" y="-147.7965" font-family="Times,serif" font-size="14.00" fill="#000000">0/1</text>
</g>
<!-- 26&#45;&gt;4 -->
<g id="edge75" class="edge">
<title>26&#45;&gt;4</title>
<path fill="none" stroke="#000000" d="M913.5655,-181.847C905.2182,-170.5375 897.4439,-155.011 906.469,-143.9965 926.2304,-119.8791 1018.121,-110.9522 1065.3202,-107.918"/>
<polygon fill="#000000" stroke="#000000" points="1065.7074,-111.4012 1075.4812,-107.3118 1065.2905,-104.4136 1065.7074,-111.4012"/>
<text text-anchor="middle" x="915.469" y="-147.7965" font-family="Times,serif" font-size="14.00" fill="#000000">1/1</text>
</g>
<!-- 26&#45;&gt;11 -->
<g id="edge74" class="edge">
<title>26&#45;&gt;11</title>
<path fill="none" stroke="#000000" d="M907.9149,-190.0534C893.9279,-184.1931 875.4976,-174.1239 865.469,-158.9965 861.0414,-152.3178 858.6981,-144.1228 857.5341,-136.2109"/>
<polygon fill="#000000" stroke="#000000" points="861.0077,-135.7622 856.6073,-126.1244 854.0371,-136.4028 861.0077,-135.7622"/>
<text text-anchor="middle" x="874.469" y="-147.7965" font-family="Times,serif" font-size="14.00" fill="#000000">0/1</text>
</g>
<!-- 26&#45;&gt;12 -->
<g id="edge73" class="edge">
<title>26&#45;&gt;12</title>
<path fill="none" stroke="#000000" d="M929.0948,-177.1735C931.7284,-165.6461 936.9871,-151.7802 947.469,-143.9965 955.5063,-138.0282 1250.5542,-115.7865 1346.5924,-108.6894"/>
<polygon fill="#000000" stroke="#000000" points="1347.0661,-112.1641 1356.7816,-107.9382 1346.5513,-105.1831 1347.0661,-112.1641"/>
<text text-anchor="middle" x="956.469" y="-147.7965" font-family="Times,serif" font-size="14.00" fill="#000000">0/1</text>
</g>
<!-- 27&#45;&gt;4 -->
<g id="edge72" class="edge">
<title>27&#45;&gt;4</title>
<path fill="none" stroke="#000000" d="M1624.8988,-189.8679C1607.2184,-183.2014 1580.164,-172.0567 1558.469,-158.9965 1549.2515,-153.4477 1549.4759,-147.9481 1539.469,-143.9965 1529.7045,-140.1407 1218.4199,-116.0594 1121.7907,-108.6591"/>
<polygon fill="#000000" stroke="#000000" points="1121.8425,-105.1529 1111.6046,-107.8799 1121.3085,-112.1325 1121.8425,-105.1529"/>
<text text-anchor="middle" x="1567.469" y="-147.7965" font-family="Times,serif" font-size="14.00" fill="#000000">0/1</text>
</g>
<!-- 27&#45;&gt;6 -->
<g id="edge70" class="edge">
<title>27&#45;&gt;6</title>
<path fill="none" stroke="#000000" d="M1638.2896,-177.5637C1636.4768,-166.4753 1636.5532,-152.9379 1644.469,-143.9965 1660.0095,-126.4427 1815.7537,-113.2603 1880.9761,-108.4671"/>
<polygon fill="#000000" stroke="#000000" points="1881.6196,-111.9299 1891.3422,-107.7202 1881.1165,-104.948 1881.6196,-111.9299"/>
<text text-anchor="middle" x="1653.469" y="-147.7965" font-family="Times,serif" font-size="14.00" fill="#000000">0/1</text>
</g>
<!-- 27&#45;&gt;8 -->
<g id="edge69" class="edge">
<title>27&#45;&gt;8</title>
<path fill="none" stroke="#000000" d="M1652.2943,-179.0938C1659.4574,-166.9741 1670.7724,-151.6596 1685.469,-143.9965 1691.5945,-140.8026 2116.2952,-115.0954 2231.1197,-108.1968"/>
<polygon fill="#000000" stroke="#000000" points="2231.4677,-111.6823 2241.24,-107.5893 2231.0482,-104.6949 2231.4677,-111.6823"/>
<text text-anchor="middle" x="1694.469" y="-147.7965" font-family="Times,serif" font-size="14.00" fill="#000000">0/1</text>
</g>
<!-- 27&#45;&gt;10 -->
<g id="edge71" class="edge">
<title>27&#45;&gt;10</title>
<path fill="none" stroke="#000000" d="M1628.6581,-183.7188C1616.0222,-172.9244 1597.2827,-157.1636 1580.469,-143.9965 1571.9923,-137.3583 1562.5344,-130.3091 1554.0878,-124.1357"/>
<polygon fill="#000000" stroke="#000000" points="1555.8841,-121.1148 1545.7351,-118.0734 1551.7723,-126.7799 1555.8841,-121.1148"/>
<text text-anchor="middle" x="1606.469" y="-147.7965" font-family="Times,serif" font-size="14.00" fill="#000000">1/1</text>
</g>
<!-- 28&#45;&gt;4 -->
<g id="edge68" class="edge">
<title>28&#45;&gt;4</title>
<path fill="none" stroke="#000000" d="M1339.7259,-186.4821C1319.6205,-174.832 1284.5833,-155.7024 1252.469,-143.9965 1207.9403,-127.7655 1153.7942,-116.7464 1121.5607,-111.051"/>
<polygon fill="#000000" stroke="#000000" points="1121.9635,-107.569 1111.515,-109.3238 1120.7773,-114.4678 1121.9635,-107.569"/>
<text text-anchor="middle" x="1297.469" y="-147.7965" font-family="Times,serif" font-size="14.00" fill="#000000">0/1</text>
</g>
<!-- 28&#45;&gt;7 -->
<g id="edge66" class="edge">
<title>28&#45;&gt;7</title>
<path fill="none" stroke="#000000" d="M1351.0034,-177.7212C1348.9622,-166.4061 1348.8973,-152.571 1357.469,-143.9965 1375.7167,-125.7428 2260.9314,-129.7391 2286.469,-125.9965 2301.0457,-123.8603 2316.8901,-119.6155 2329.8123,-115.6305"/>
<polygon fill="#000000" stroke="#000000" points="2331.0144,-118.9206 2339.469,-112.5355 2328.8779,-112.2546 2331.0144,-118.9206"/>
<text text-anchor="middle" x="1366.469" y="-147.7965" font-family="Times,serif" font-size="14.00" fill="#000000">0/1</text>
</g>
<!-- 28&#45;&gt;9 -->
<g id="edge65" class="edge">
<title>28&#45;&gt;9</title>
<path fill="none" stroke="#000000" d="M1367.3803,-180.3291C1376.8559,-167.8344 1391.8109,-151.4531 1409.469,-143.9965 1509.1838,-101.8895 2280.79,-160.2468 2383.469,-125.9965 2385.1282,-125.4431 2386.7722,-124.7482 2388.3816,-123.953"/>
<polygon fill="#000000" stroke="#000000" points="2390.4075,-126.8157 2397.0829,-118.5884 2386.7339,-120.8572 2390.4075,-126.8157"/>
<text text-anchor="middle" x="1418.469" y="-147.7965" font-family="Times,serif" font-size="14.00" fill="#000000">0/1</text>
</g>
<!-- 28&#45;&gt;12 -->
<g id="edge67" class="edge">
<title>28&#45;&gt;12</title>
<path fill="none" stroke="#000000" d="M1339.513,-186.2664C1324.9863,-176.1176 1307.6924,-159.8312 1316.469,-143.9965 1323.3761,-131.5346 1336.3418,-122.6674 1348.4578,-116.6957"/>
<polygon fill="#000000" stroke="#000000" points="1350.1456,-119.7756 1357.8604,-112.514 1347.301,-113.3797 1350.1456,-119.7756"/>
<text text-anchor="middle" x="1325.469" y="-147.7965" font-family="Times,serif" font-size="14.00" fill="#000000">1/1</text>
</g>
<!-- 29&#45;&gt;5 -->
<g id="edge64" class="edge">
<title>29&#45;&gt;5</title>
<path fill="none" stroke="#000000" d="M3342.8624,-189.6962C3366.1095,-180.141 3401.1949,-161.8972 3384.469,-143.9965 3366.4195,-124.6793 2971.0561,-110.8512 2860.794,-107.3603"/>
<polygon fill="#000000" stroke="#000000" points="2860.5738,-103.8518 2850.4693,-107.0374 2860.355,-110.8484 2860.5738,-103.8518"/>
<text text-anchor="middle" x="3397.469" y="-147.7965" font-family="Times,serif" font-size="14.00" fill="#000000">1/1</text>
</g>
<!-- 29&#45;&gt;7 -->
<g id="edge62" class="edge">
<title>29&#45;&gt;7</title>
<path fill="none" stroke="#000000" d="M3321.7047,-177.1603C3318.9366,-165.4734 3313.4223,-151.4384 3302.469,-143.9965 3260.2302,-115.2989 2431.9015,-142.1818 2383.469,-125.9965 2381.8101,-125.4422 2380.1663,-124.7466 2378.5571,-123.9508"/>
<polygon fill="#000000" stroke="#000000" points="2380.205,-120.8551 2369.8562,-118.585 2376.5306,-126.8132 2380.205,-120.8551"/>
<text text-anchor="middle" x="3323.469" y="-147.7965" font-family="Times,serif" font-size="14.00" fill="#000000">0/1</text>
</g>
<!-- 29&#45;&gt;8 -->
<g id="edge63" class="edge">
<title>29&#45;&gt;8</title>
<path fill="none" stroke="#000000" d="M3310.0192,-182.9628C3295.3125,-170.1735 3271.2171,-151.8155 3246.469,-143.9965 3149.2951,-113.295 2430.2986,-140.7864 2329.469,-125.9965 2314.8925,-123.8584 2299.0481,-119.6135 2286.1259,-115.6288"/>
<polygon fill="#000000" stroke="#000000" points="2287.0602,-112.253 2276.4691,-112.5342 2284.924,-118.9191 2287.0602,-112.253"/>
<text text-anchor="middle" x="3285.469" y="-147.7965" font-family="Times,serif" font-size="14.00" fill="#000000">0/1</text>
</g>
<!-- 29&#45;&gt;9 -->
<g id="edge61" class="edge">
<title>29&#45;&gt;9</title>
<path fill="none" stroke="#000000" d="M3337.4275,-181.3806C3345.7436,-169.814 3353.3069,-154.1691 3343.469,-143.9965 3322.6791,-122.4994 2835.349,-127.2338 2805.469,-125.9965 2667.9881,-120.3038 2503.6882,-111.5748 2438.812,-108.0521"/>
<polygon fill="#000000" stroke="#000000" points="2438.7507,-104.5437 2428.5751,-107.4946 2438.37,-111.5333 2438.7507,-104.5437"/>
<text text-anchor="middle" x="3356.469" y="-147.7965" font-family="Times,serif" font-size="14.00" fill="#000000">0/1</text>
</g>
<!-- 30&#45;&gt;5 -->
<g id="edge60" class="edge">
<title>30&#45;&gt;5</title>
<path fill="none" stroke="#000000" d="M2355.5384,-183.8221C2371.3511,-171.3185 2397.479,-152.8322 2423.469,-143.9965 2494.233,-119.9395 2723.3766,-110.1368 2804.0494,-107.3753"/>
<polygon fill="#000000" stroke="#000000" points="2804.5369,-110.8611 2814.4154,-107.0316 2804.3048,-103.865 2804.5369,-110.8611"/>
<text text-anchor="middle" x="2432.469" y="-147.7965" font-family="Times,serif" font-size="14.00" fill="#000000">1/1</text>
</g>
<!-- 30&#45;&gt;6 -->
<g id="edge57" class="edge">
<title>30&#45;&gt;6</title>
<path fill="none" stroke="#000000" d="M2337.4537,-177.1654C2334.5923,-165.6349 2329.0683,-151.7685 2318.469,-143.9965 2303.0835,-132.7151 2027.4903,-114.0837 1937.5796,-108.2803"/>
<polygon fill="#000000" stroke="#000000" points="1937.769,-104.7854 1927.5653,-107.6375 1937.3206,-111.771 1937.769,-104.7854"/>
<text text-anchor="middle" x="2338.469" y="-147.7965" font-family="Times,serif" font-size="14.00" fill="#000000">0/1</text>
</g>
<!-- 30&#45;&gt;7 -->
<g id="edge58" class="edge">
<title>30&#45;&gt;7</title>
<path fill="none" stroke="#000000" d="M2350.946,-179.972C2354.3717,-173.6605 2357.7394,-166.2369 2359.469,-158.9965 2361.3568,-151.094 2361.5694,-142.3409 2361.0434,-134.284"/>
<polygon fill="#000000" stroke="#000000" points="2364.5133,-133.8112 2360.0053,-124.2233 2357.5503,-134.5297 2364.5133,-133.8112"/>
<text text-anchor="middle" x="2369.469" y="-147.7965" font-family="Times,serif" font-size="14.00" fill="#000000">0/1</text>
</g>
<!-- 30&#45;&gt;10 -->
<g id="edge59" class="edge">
<title>30&#45;&gt;10</title>
<path fill="none" stroke="#000000" d="M2325.4932,-183.6049C2307.781,-168.4218 2280.3227,-145.1038 2277.469,-143.9965 2236.5098,-128.1038 1926.3477,-128.2081 1882.469,-125.9965 1762.4754,-119.9487 1619.5965,-111.7496 1558.9868,-108.2251"/>
<polygon fill="#000000" stroke="#000000" points="1559.1686,-104.7299 1548.982,-107.6423 1558.7615,-111.718 1559.1686,-104.7299"/>
<text text-anchor="middle" x="2304.469" y="-147.7965" font-family="Times,serif" font-size="14.00" fill="#000000">0/1</text>
</g>
<!-- 31&#45;&gt;5 -->
<g id="edge56" class="edge">
<title>31&#45;&gt;5</title>
<path fill="none" stroke="#000000" d="M2644.0768,-186.2349C2656.1519,-178.7461 2672.8709,-168.3173 2687.469,-158.9965 2697.7551,-152.4289 2699.4173,-149.1732 2710.469,-143.9965 2741.3711,-129.522 2779.2431,-118.8924 2804.5166,-112.7197"/>
<polygon fill="#000000" stroke="#000000" points="2805.5965,-116.0609 2814.5198,-110.349 2803.9821,-109.2495 2805.5965,-116.0609"/>
<text text-anchor="middle" x="2719.469" y="-147.7965" font-family="Times,serif" font-size="14.00" fill="#000000">1/1</text>
</g>
<!-- 31&#45;&gt;7 -->
<g id="edge54" class="edge">
<title>31&#45;&gt;7</title>
<path fill="none" stroke="#000000" d="M2640.3283,-181.4748C2648.5898,-169.9601 2656.128,-154.3392 2646.469,-143.9965 2626.477,-122.5895 2411.0149,-135.9546 2383.469,-125.9965 2381.8615,-125.4154 2380.2652,-124.7085 2378.699,-123.9126"/>
<polygon fill="#000000" stroke="#000000" points="2380.5321,-120.931 2370.1886,-118.6371 2376.844,-126.8807 2380.5321,-120.931"/>
<text text-anchor="middle" x="2659.469" y="-147.7965" font-family="Times,serif" font-size="14.00" fill="#000000">0/1</text>
</g>
<!-- 31&#45;&gt;8 -->
<g id="edge53" class="edge">
<title>31&#45;&gt;8</title>
<path fill="none" stroke="#000000" d="M2624.5239,-177.0684C2621.6896,-165.5003 2616.1696,-151.6284 2605.469,-143.9965 2580.4489,-126.1516 2359.7661,-131.1471 2329.469,-125.9965 2315.0431,-123.5441 2299.3191,-119.3111 2286.435,-115.4146"/>
<polygon fill="#000000" stroke="#000000" points="2287.3788,-112.0427 2276.79,-112.4023 2285.2919,-118.7244 2287.3788,-112.0427"/>
<text text-anchor="middle" x="2625.469" y="-147.7965" font-family="Times,serif" font-size="14.00" fill="#000000">0/1</text>
</g>
<!-- 31&#45;&gt;12 -->
<g id="edge55" class="edge">
<title>31&#45;&gt;12</title>
<path fill="none" stroke="#000000" d="M2612.351,-183.6868C2594.1755,-168.3192 2565.912,-144.5328 2564.469,-143.9965 2509.1048,-123.4207 1560.3156,-131.0601 1501.469,-125.9965 1468.5351,-123.1627 1431.1224,-116.9219 1405.8794,-112.2595"/>
<polygon fill="#000000" stroke="#000000" points="1406.3294,-108.7828 1395.8545,-110.3724 1405.0345,-115.662 1406.3294,-108.7828"/>
<text text-anchor="middle" x="2590.469" y="-147.7965" font-family="Times,serif" font-size="14.00" fill="#000000">0/1</text>
</g>
<!-- 32&#45;&gt;7 -->
<g id="edge52" class="edge">
<title>32&#45;&gt;7</title>
<path fill="none" stroke="#000000" d="M2211.1985,-182.5013C2223.1175,-170.9641 2241.2768,-154.7965 2259.469,-143.9965 2281.5475,-130.8895 2309.0298,-120.773 2329.0989,-114.3692"/>
<polygon fill="#000000" stroke="#000000" points="2330.3252,-117.6537 2338.8501,-111.3627 2328.2627,-110.9644 2330.3252,-117.6537"/>
<text text-anchor="middle" x="2268.469" y="-147.7965" font-family="Times,serif" font-size="14.00" fill="#000000">1/1</text>
</g>
<!-- 32&#45;&gt;8 -->
<g id="edge51" class="edge">
<title>32&#45;&gt;8</title>
<path fill="none" stroke="#000000" d="M2202.7708,-177.4994C2206.2344,-167.0446 2211.4316,-154.1681 2218.469,-143.9965 2223.4857,-136.7456 2230.1469,-129.8921 2236.6388,-124.0765"/>
<polygon fill="#000000" stroke="#000000" points="2239.2597,-126.4438 2244.6346,-117.3135 2234.7392,-121.0991 2239.2597,-126.4438"/>
<text text-anchor="middle" x="2227.469" y="-147.7965" font-family="Times,serif" font-size="14.00" fill="#000000">0/1</text>
</g>
<!-- 32&#45;&gt;10 -->
<g id="edge50" class="edge">
<title>32&#45;&gt;10</title>
<path fill="none" stroke="#000000" d="M2188.3456,-179.0621C2180.9682,-166.9266 2169.3676,-151.6063 2154.469,-143.9965 2147.7517,-140.5655 1682.4737,-114.875 1559.1781,-108.121"/>
<polygon fill="#000000" stroke="#000000" points="1559.1474,-104.6141 1548.971,-107.5623 1558.7648,-111.6037 1559.1474,-104.6141"/>
<text text-anchor="middle" x="2181.469" y="-147.7965" font-family="Times,serif" font-size="14.00" fill="#000000">0/1</text>
</g>
<!-- 33&#45;&gt;3 -->
<g id="edge48" class="edge">
<title>33&#45;&gt;3</title>
<path fill="none" stroke="#000000" d="M1874.3509,-183.6871C1856.1753,-168.3197 1827.9117,-144.5336 1826.469,-143.9965 1774.5521,-124.6687 884.8291,-128.042 829.469,-125.9965 710.1508,-121.5879 568.0871,-112.4383 508.7222,-108.4395"/>
<polygon fill="#000000" stroke="#000000" points="508.8378,-104.9394 498.624,-107.7551 508.3644,-111.9234 508.8378,-104.9394"/>
<text text-anchor="middle" x="1852.469" y="-147.7965" font-family="Times,serif" font-size="14.00" fill="#000000">0/1</text>
</g>
<!-- 33&#45;&gt;7 -->
<g id="edge49" class="edge">
<title>33&#45;&gt;7</title>
<path fill="none" stroke="#000000" d="M1898.2613,-179.03C1905.408,-166.8785 1916.717,-151.5523 1931.469,-143.9965 1966.6215,-125.9919 2247.4857,-132.3341 2286.469,-125.9965 2301.0105,-123.6325 2316.8519,-119.3678 2329.781,-115.4284"/>
<polygon fill="#000000" stroke="#000000" points="2330.9605,-118.7265 2339.4452,-112.3814 2328.8555,-112.0504 2330.9605,-118.7265"/>
<text text-anchor="middle" x="1940.469" y="-147.7965" font-family="Times,serif" font-size="14.00" fill="#000000">1/1</text>
</g>
<!-- 33&#45;&gt;9 -->
<g id="edge46" class="edge">
<title>33&#45;&gt;9</title>
<path fill="none" stroke="#000000" d="M1906.0768,-186.2349C1918.1519,-178.7461 1934.8709,-168.3173 1949.469,-158.9965 1959.7551,-152.4289 1960.8498,-147.7292 1972.469,-143.9965 2059.5089,-116.0351 2297.1183,-156.0188 2383.469,-125.9965 2385.121,-125.4222 2386.7597,-124.7113 2388.365,-123.9041"/>
<polygon fill="#000000" stroke="#000000" points="2390.4055,-126.7571 2397.0561,-118.5097 2386.7139,-120.8096 2390.4055,-126.7571"/>
<text text-anchor="middle" x="1981.469" y="-147.7965" font-family="Times,serif" font-size="14.00" fill="#000000">0/1</text>
</g>
<!-- 33&#45;&gt;12 -->
<g id="edge47" class="edge">
<title>33&#45;&gt;12</title>
<path fill="none" stroke="#000000" d="M1886.5659,-177.009C1883.7479,-165.4178 1878.2302,-151.5427 1867.469,-143.9965 1834.1326,-120.62 1541.9734,-130.1399 1501.469,-125.9965 1468.585,-122.6327 1431.1635,-116.4851 1405.9048,-111.9894"/>
<polygon fill="#000000" stroke="#000000" points="1406.336,-108.5107 1395.873,-110.1768 1405.0913,-115.3992 1406.336,-108.5107"/>
<text text-anchor="middle" x="1887.469" y="-147.7965" font-family="Times,serif" font-size="14.00" fill="#000000">0/1</text>
</g>
<!-- 34&#45;&gt;5 -->
<g id="edge44" class="edge">
<title>34&#45;&gt;5</title>
<path fill="none" stroke="#000000" d="M3178.789,-189.7638C3201.9509,-180.2871 3236.938,-162.1339 3220.469,-143.9965 3196.3647,-117.4504 2946.2459,-109.1576 2860.8557,-107.0893"/>
<polygon fill="#000000" stroke="#000000" points="2860.9123,-103.5897 2850.8339,-106.8571 2860.7501,-110.5879 2860.9123,-103.5897"/>
<text text-anchor="middle" x="3233.469" y="-147.7965" font-family="Times,serif" font-size="14.00" fill="#000000">0/1</text>
</g>
<!-- 34&#45;&gt;7 -->
<g id="edge43" class="edge">
<title>34&#45;&gt;7</title>
<path fill="none" stroke="#000000" d="M3157.6939,-177.1762C3154.9215,-165.4955 3149.4064,-151.4616 3138.469,-143.9965 3103.8149,-120.3442 2423.2338,-139.3793 2383.469,-125.9965 2381.8113,-125.4386 2380.1684,-124.7404 2378.5599,-123.9426"/>
<polygon fill="#000000" stroke="#000000" points="2380.2083,-120.847 2369.8606,-118.5717 2376.5308,-126.8033 2380.2083,-120.847"/>
<text text-anchor="middle" x="3159.469" y="-147.7965" font-family="Times,serif" font-size="14.00" fill="#000000">0/1</text>
</g>
<!-- 34&#45;&gt;9 -->
<g id="edge42" class="edge">
<title>34&#45;&gt;9</title>
<path fill="none" stroke="#000000" d="M3173.3861,-181.4204C3181.6793,-169.8757 3189.2322,-154.2409 3179.469,-143.9965 3165.1178,-128.938 2826.2461,-127.0093 2805.469,-125.9965 2668.0335,-119.2972 2503.7079,-111.1376 2438.8184,-107.9097"/>
<polygon fill="#000000" stroke="#000000" points="2438.741,-104.4016 2428.5794,-107.4002 2438.3931,-111.3929 2438.741,-104.4016"/>
<text text-anchor="middle" x="3192.469" y="-147.7965" font-family="Times,serif" font-size="14.00" fill="#000000">0/1</text>
</g>
<!-- 34&#45;&gt;11 -->
<g id="edge45" class="edge">
<title>34&#45;&gt;11</title>
<path fill="none" stroke="#000000" d="M3146.0994,-183.1448C3131.22,-170.3006 3106.6578,-151.7257 3081.469,-143.9965 3027.9571,-127.5764 1122.3707,-128.8488 1066.469,-125.9965 1002.3229,-122.7236 927.437,-114.7152 887.0047,-110.0432"/>
<polygon fill="#000000" stroke="#000000" points="887.3618,-106.5612 877.0231,-108.8764 886.549,-113.5138 887.3618,-106.5612"/>
<text text-anchor="middle" x="3120.469" y="-147.7965" font-family="Times,serif" font-size="14.00" fill="#000000">1/1</text>
</g>
<!-- 35&#45;&gt;6 -->
<g id="edge40" class="edge">
<title>35&#45;&gt;6</title>
<path fill="none" stroke="#000000" d="M2049.646,-177.1292C2046.5143,-166.025 2040.9899,-152.6218 2031.469,-143.9965 2017.6003,-131.4325 1968.9231,-119.1238 1937.4073,-112.203"/>
<polygon fill="#000000" stroke="#000000" points="1937.9637,-108.7429 1927.4523,-110.0699 1936.497,-115.5875 1937.9637,-108.7429"/>
<text text-anchor="middle" x="2050.469" y="-147.7965" font-family="Times,serif" font-size="14.00" fill="#000000">0/1</text>
</g>
<!-- 35&#45;&gt;7 -->
<g id="edge39" class="edge">
<title>35&#45;&gt;7</title>
<path fill="none" stroke="#000000" d="M2062.5133,-178.9637C2069.7165,-166.9464 2080.9867,-151.8145 2095.469,-143.9965 2132.9842,-123.7447 2244.5469,-133.7469 2286.469,-125.9965 2300.8581,-123.3363 2316.5785,-119.0839 2329.4699,-115.2282"/>
<polygon fill="#000000" stroke="#000000" points="2330.5935,-118.5445 2339.1225,-112.2591 2328.5354,-111.8539 2330.5935,-118.5445"/>
<text text-anchor="middle" x="2104.469" y="-147.7965" font-family="Times,serif" font-size="14.00" fill="#000000">0/1</text>
</g>
<!-- 35&#45;&gt;9 -->
<g id="edge38" class="edge">
<title>35&#45;&gt;9</title>
<path fill="none" stroke="#000000" d="M2070.0768,-186.2349C2082.1519,-178.7461 2098.8709,-168.3173 2113.469,-158.9965 2123.7551,-152.4289 2124.9051,-147.8971 2136.469,-143.9965 2240.7645,-108.8168 2280.0391,-163.6453 2383.469,-125.9965 2385.0752,-125.4119 2386.6705,-124.7022 2388.236,-123.9043"/>
<polygon fill="#000000" stroke="#000000" points="2390.0936,-126.8707 2396.7445,-118.6235 2386.4022,-120.9231 2390.0936,-126.8707"/>
<text text-anchor="middle" x="2145.469" y="-147.7965" font-family="Times,serif" font-size="14.00" fill="#000000">0/1</text>
</g>
<!-- 35&#45;&gt;12 -->
<g id="edge41" class="edge">
<title>35&#45;&gt;12</title>
<path fill="none" stroke="#000000" d="M2038.4947,-183.6009C2020.7841,-168.4136 1993.3275,-145.0913 1990.469,-143.9965 1939.6953,-124.5507 1555.59,-131.1954 1501.469,-125.9965 1468.5649,-122.8358 1431.1469,-116.6525 1405.8945,-112.0929"/>
<polygon fill="#000000" stroke="#000000" points="1406.3332,-108.615 1395.8655,-110.2517 1405.0692,-115.4999 1406.3332,-108.615"/>
<text text-anchor="middle" x="2017.469" y="-147.7965" font-family="Times,serif" font-size="14.00" fill="#000000">1/1</text>
</g>
<!-- 36&#45;&gt;3 -->
<g id="edge37" class="edge">
<title>36&#45;&gt;3</title>
<path fill="none" stroke="#000000" d="M641.4055,-189.0237C624.7432,-181.9247 599.4815,-170.6326 578.469,-158.9965 567.7927,-153.0843 566.0552,-150.0686 555.469,-143.9965 539.4632,-134.816 520.9213,-125.534 506.2784,-118.5015"/>
<polygon fill="#000000" stroke="#000000" points="507.3775,-115.1489 496.8429,-114.0211 504.3749,-121.4723 507.3775,-115.1489"/>
<text text-anchor="middle" x="587.469" y="-147.7965" font-family="Times,serif" font-size="14.00" fill="#000000">1/1</text>
</g>
<!-- 36&#45;&gt;7 -->
<g id="edge34" class="edge">
<title>36&#45;&gt;7</title>
<path fill="none" stroke="#000000" d="M671.3102,-180.7703C681.8487,-168.1772 698.5014,-151.4312 717.469,-143.9965 798.6295,-112.1845 2200.1686,-138.296 2286.469,-125.9965 2301.0541,-123.9179 2316.8992,-119.6782 2329.8197,-115.6816"/>
<polygon fill="#000000" stroke="#000000" points="2331.0277,-118.9697 2339.4747,-112.5745 2328.8832,-112.3062 2331.0277,-118.9697"/>
<text text-anchor="middle" x="726.469" y="-147.7965" font-family="Times,serif" font-size="14.00" fill="#000000">0/1</text>
</g>
<!-- 36&#45;&gt;10 -->
<g id="edge35" class="edge">
<title>36&#45;&gt;10</title>
<path fill="none" stroke="#000000" d="M654.0177,-177.7355C651.9821,-166.4259 651.918,-152.5917 660.469,-143.9965 675.0492,-129.3412 1383.879,-127.8435 1404.469,-125.9965 1437.3923,-123.0432 1474.807,-116.8234 1500.0533,-112.1986"/>
<polygon fill="#000000" stroke="#000000" points="1500.891,-115.6028 1510.0796,-110.3283 1499.6073,-108.7215 1500.891,-115.6028"/>
<text text-anchor="middle" x="669.469" y="-147.7965" font-family="Times,serif" font-size="14.00" fill="#000000">0/1</text>
</g>
<!-- 36&#45;&gt;11 -->
<g id="edge36" class="edge">
<title>36&#45;&gt;11</title>
<path fill="none" stroke="#000000" d="M642.6629,-186.3646C626.8681,-175.5952 607.3334,-158.1939 619.469,-143.9965 632.8655,-128.324 766.7975,-114.5501 827.6545,-109.0465"/>
<polygon fill="#000000" stroke="#000000" points="828.1333,-112.5179 837.7841,-108.146 827.5134,-105.5454 828.1333,-112.5179"/>
<text text-anchor="middle" x="628.469" y="-147.7965" font-family="Times,serif" font-size="14.00" fill="#000000">0/1</text>
</g>
<!-- 37&#45;&gt;4 -->
<g id="edge33" class="edge">
<title>37&#45;&gt;4</title>
<path fill="none" stroke="#000000" d="M790.3329,-181.6487C781.8572,-170.2299 774.0238,-154.653 783.469,-143.9965 792.7869,-133.4836 990.2963,-115.4076 1065.0981,-108.9113"/>
<polygon fill="#000000" stroke="#000000" points="1065.545,-112.3858 1075.2071,-108.0391 1064.9432,-105.4117 1065.545,-112.3858"/>
<text text-anchor="middle" x="792.469" y="-147.7965" font-family="Times,serif" font-size="14.00" fill="#000000">1/1</text>
</g>
<!-- 37&#45;&gt;9 -->
<g id="edge31" class="edge">
<title>37&#45;&gt;9</title>
<path fill="none" stroke="#000000" d="M810.1165,-177.927C815.4914,-165.9217 824.3462,-151.2315 837.469,-143.9965 912.6891,-102.5256 2301.8954,-152.8973 2383.469,-125.9965 2385.1301,-125.4488 2386.7756,-124.7582 2388.386,-123.9662"/>
<polygon fill="#000000" stroke="#000000" points="2390.4079,-126.8317 2397.09,-118.6097 2386.7391,-120.8701 2390.4079,-126.8317"/>
<text text-anchor="middle" x="846.469" y="-147.7965" font-family="Times,serif" font-size="14.00" fill="#000000">0/1</text>
</g>
<!-- 37&#45;&gt;11 -->
<g id="edge32" class="edge">
<title>37&#45;&gt;11</title>
<path fill="none" stroke="#000000" d="M784.6994,-189.9969C761.8859,-181.0518 728.1071,-163.7857 742.469,-143.9965 752.6199,-130.0096 797.2563,-118.5074 827.8375,-112.0767"/>
<polygon fill="#000000" stroke="#000000" points="828.884,-115.4358 837.9887,-110.0178 827.4925,-108.5755 828.884,-115.4358"/>
<text text-anchor="middle" x="751.469" y="-147.7965" font-family="Times,serif" font-size="14.00" fill="#000000">0/1</text>
</g>
<!-- 38&#45;&gt;2 -->
<g id="edge3" class="edge">
<title>38&#45;&gt;2</title>
<path fill="none" stroke="#000000" d="M1173.8988,-189.8679C1156.2184,-183.2014 1129.164,-172.0567 1107.469,-158.9965 1098.2515,-153.4477 1098.5818,-147.6687 1088.469,-143.9965 1022.1237,-119.9053 523.4491,-135.2092 453.469,-125.9965 434.9035,-123.5525 414.4089,-118.6797 398.5531,-114.417"/>
<polygon fill="#000000" stroke="#000000" points="399.4416,-111.0314 388.8702,-111.7356 397.5734,-117.7775 399.4416,-111.0314"/>
<text text-anchor="middle" x="1116.469" y="-147.7965" font-family="Times,serif" font-size="14.00" fill="#000000">0/1</text>
</g>
<!-- 38&#45;&gt;6 -->
<g id="edge2" class="edge">
<title>38&#45;&gt;6</title>
<path fill="none" stroke="#000000" d="M1187.0483,-177.5548C1185.0865,-166.3211 1185.0905,-152.6334 1193.469,-143.9965 1207.5667,-129.4641 1537.2498,-127.0565 1557.469,-125.9965 1677.7267,-119.6925 1821.0578,-111.561 1880.9591,-108.1349"/>
<polygon fill="#000000" stroke="#000000" points="1881.3651,-111.6175 1891.1487,-107.5515 1880.9649,-104.629 1881.3651,-111.6175"/>
<text text-anchor="middle" x="1202.469" y="-147.7965" font-family="Times,serif" font-size="14.00" fill="#000000">0/1</text>
</g>
<!-- 38&#45;&gt;9 -->
<g id="edge1" class="edge">
<title>38&#45;&gt;9</title>
<path fill="none" stroke="#000000" d="M1200.1984,-178.406C1206.4418,-166.2884 1216.4966,-151.2695 1230.469,-143.9965 1287.2949,-114.4173 2322.6684,-146.1807 2383.469,-125.9965 2385.129,-125.4455 2386.7736,-124.7524 2388.3834,-123.9585"/>
<polygon fill="#000000" stroke="#000000" points="2390.4077,-126.8224 2397.0859,-118.5973 2386.7361,-120.8626 2390.4077,-126.8224"/>
<text text-anchor="middle" x="1239.469" y="-147.7965" font-family="Times,serif" font-size="14.00" fill="#000000">0/1</text>
</g>
<!-- 38&#45;&gt;11 -->
<g id="edge4" class="edge">
<title>38&#45;&gt;11</title>
<path fill="none" stroke="#000000" d="M1178.0454,-182.8549C1163.0001,-168.9316 1140.1485,-148.7128 1129.469,-143.9965 1086.4817,-125.0127 948.3713,-113.028 887.1567,-108.5218"/>
<polygon fill="#000000" stroke="#000000" points="887.2247,-105.0177 876.9993,-107.7911 886.7224,-111.9997 887.2247,-105.0177"/>
<text text-anchor="middle" x="1159.469" y="-147.7965" font-family="Times,serif" font-size="14.00" fill="#000000">1/1</text>
</g>
</g>
</svg>
