<?xml version="1.0" encoding="UTF-8" standalone="no"?>
<!DOCTYPE svg PUBLIC "-//W3C//DTD SVG 1.1//EN"
 "http://www.w3.org/Graphics/SVG/1.1/DTD/svg11.dtd">
<!-- Generated by graphviz version 2.40.1 (20161225.0304)
 -->
<!-- Title: finite_state_machine Pages: 1 -->
<svg width="147pt" height="392pt"
 viewBox="0.00 0.00 147.00 392.00" xmlns="http://www.w3.org/2000/svg" xmlns:xlink="http://www.w3.org/1999/xlink">
<g id="graph0" class="graph" transform="scale(1 1) rotate(0) translate(4 388)">
<title>finite_state_machine</title>
<polygon fill="#ffffff" stroke="transparent" points="-4,4 -4,-388 143,-388 143,4 -4,4"/>
<!-- 0 -->
<g id="node1" class="node">
<title>0</title>
<ellipse fill="none" stroke="#000000" cx="72" cy="-366" rx="18" ry="18"/>
<text text-anchor="middle" x="72" y="-362.3" font-family="Times,serif" font-size="14.00" fill="#000000">0</text>
</g>
<!-- 2 -->
<g id="node2" class="node">
<title>2</title>
<ellipse fill="none" stroke="#000000" cx="18" cy="-192" rx="18" ry="18"/>
<text text-anchor="middle" x="18" y="-188.3" font-family="Times,serif" font-size="14.00" fill="#000000">2</text>
</g>
<!-- 0&#45;&gt;2 -->
<g id="edge1" class="edge">
<title>0&#45;&gt;2</title>
<path fill="none" stroke="#000000" d="M62.7633,-350.3495C55.0802,-336.6925 44.4013,-316.1223 38,-297 29.534,-271.7096 24.2702,-241.7224 21.2814,-220.2827"/>
<polygon fill="#000000" stroke="#000000" points="24.7311,-219.67 19.9569,-210.2118 17.7908,-220.5828 24.7311,-219.67"/>
<text text-anchor="middle" x="41.5" y="-275.3" font-family="Times,serif" font-size="14.00" fill="#000000">8</text>
</g>
<!-- 3 -->
<g id="node3" class="node">
<title>3</title>
<ellipse fill="none" stroke="#000000" cx="72" cy="-279" rx="18" ry="18"/>
<text text-anchor="middle" x="72" y="-275.3" font-family="Times,serif" font-size="14.00" fill="#000000">3</text>
</g>
<!-- 0&#45;&gt;3 -->
<g id="edge2" class="edge">
<title>0&#45;&gt;3</title>
<path fill="none" stroke="#000000" d="M72,-347.9735C72,-336.1918 72,-320.5607 72,-307.1581"/>
<polygon fill="#000000" stroke="#000000" points="75.5001,-307.0033 72,-297.0034 68.5001,-307.0034 75.5001,-307.0033"/>
<text text-anchor="middle" x="79" y="-318.8" font-family="Times,serif" font-size="14.00" fill="#000000">10</text>
</g>
<!-- 1 -->
<g id="node4" class="node">
<title>1</title>
<ellipse fill="none" stroke="#000000" cx="121" cy="-192" rx="18" ry="18"/>
<text text-anchor="middle" x="121" y="-188.3" font-family="Times,serif" font-size="14.00" fill="#000000">1</text>
</g>
<!-- 0&#45;&gt;1 -->
<g id="edge3" class="edge">
<title>0&#45;&gt;1</title>
<path fill="none" stroke="#000000" d="M80.6344,-350.128C83.81,-343.9483 87.289,-336.7426 90,-330 105.1029,-292.4365 109.3699,-282.7604 117,-243 118.4107,-235.6488 119.3261,-227.6102 119.9194,-220.1336"/>
<polygon fill="#000000" stroke="#000000" points="123.4176,-220.271 120.5617,-210.0684 116.4318,-219.8251 123.4176,-220.271"/>
<text text-anchor="middle" x="116.5" y="-275.3" font-family="Times,serif" font-size="14.00" fill="#000000">7</text>
</g>
<!-- 4 -->
<g id="node5" class="node">
<title>4</title>
<ellipse fill="none" stroke="#000000" cx="73" cy="-105" rx="18" ry="18"/>
<text text-anchor="middle" x="73" y="-101.3" font-family="Times,serif" font-size="14.00" fill="#000000">4</text>
</g>
<!-- 2&#45;&gt;4 -->
<g id="edge4" class="edge">
<title>2&#45;&gt;4</title>
<path fill="none" stroke="#000000" d="M25.3709,-175.4448C30.1782,-165.2258 36.8679,-152.0106 44,-141 47.1633,-136.1164 50.8608,-131.1116 54.5363,-126.4459"/>
<polygon fill="#000000" stroke="#000000" points="57.3984,-128.4742 61.008,-118.5132 51.9745,-124.0492 57.3984,-128.4742"/>
<text text-anchor="middle" x="51" y="-144.8" font-family="Times,serif" font-size="14.00" fill="#000000">12</text>
</g>
<!-- 3&#45;&gt;2 -->
<g id="edge6" class="edge">
<title>3&#45;&gt;2</title>
<path fill="none" stroke="#000000" d="M62.3459,-263.4461C54.2062,-250.3322 42.4192,-231.342 33.0429,-216.2358"/>
<polygon fill="#000000" stroke="#000000" points="35.818,-214.0698 27.5705,-207.4192 29.8705,-217.7614 35.818,-214.0698"/>
<text text-anchor="middle" x="51.5" y="-231.8" font-family="Times,serif" font-size="14.00" fill="#000000">2</text>
</g>
<!-- 3&#45;&gt;1 -->
<g id="edge7" class="edge">
<title>3&#45;&gt;1</title>
<path fill="none" stroke="#000000" d="M80.9874,-263.0429C88.309,-250.0433 98.7704,-231.4688 107.1602,-216.5728"/>
<polygon fill="#000000" stroke="#000000" points="110.2118,-218.2867 112.0696,-207.856 104.1126,-214.8515 110.2118,-218.2867"/>
<text text-anchor="middle" x="106" y="-231.8" font-family="Times,serif" font-size="14.00" fill="#000000">11</text>
</g>
<!-- 3&#45;&gt;4 -->
<g id="edge5" class="edge">
<title>3&#45;&gt;4</title>
<path fill="none" stroke="#000000" d="M72.1051,-260.7078C72.2796,-230.3436 72.6303,-169.3226 72.8371,-133.3464"/>
<polygon fill="#000000" stroke="#000000" points="76.3387,-133.0671 72.8963,-123.0471 69.3388,-133.0268 76.3387,-133.0671"/>
<text text-anchor="middle" x="75.5" y="-188.3" font-family="Times,serif" font-size="14.00" fill="#000000">5</text>
</g>
<!-- 1&#45;&gt;4 -->
<g id="edge8" class="edge">
<title>1&#45;&gt;4</title>
<path fill="none" stroke="#000000" d="M112.1961,-176.0429C105.0915,-163.1659 94.969,-144.8188 86.7905,-129.9954"/>
<polygon fill="#000000" stroke="#000000" points="89.6435,-127.921 81.7481,-120.856 83.5144,-131.3026 89.6435,-127.921"/>
<text text-anchor="middle" x="102.5" y="-144.8" font-family="Times,serif" font-size="14.00" fill="#000000">1</text>
</g>
<!-- 5 -->
<g id="node6" class="node">
<title>5</title>
<ellipse fill="none" stroke="#000000" cx="100" cy="-18" rx="18" ry="18"/>
<text text-anchor="middle" x="100" y="-14.3" font-family="Times,serif" font-size="14.00" fill="#000000">5</text>
</g>
<!-- 1&#45;&gt;5 -->
<g id="edge9" class="edge">
<title>1&#45;&gt;5</title>
<path fill="none" stroke="#000000" d="M119.3408,-173.6548C116.8702,-147.1772 111.879,-96.7355 106,-54 105.6449,-51.4185 105.249,-48.7374 104.8347,-46.0553"/>
<polygon fill="#000000" stroke="#000000" points="108.2461,-45.2263 103.192,-35.9146 101.3361,-46.3457 108.2461,-45.2263"/>
<text text-anchor="middle" x="121" y="-101.3" font-family="Times,serif" font-size="14.00" fill="#000000">21</text>
</g>
<!-- 4&#45;&gt;5 -->
<g id="edge10" class="edge">
<title>4&#45;&gt;5</title>
<path fill="none" stroke="#000000" d="M78.4639,-87.3943C82.2213,-75.287 87.2845,-58.972 91.5576,-45.2034"/>
<polygon fill="#000000" stroke="#000000" points="95.0151,-45.8707 94.6364,-35.2827 88.3296,-43.7959 95.0151,-45.8707"/>
<text text-anchor="middle" x="95" y="-57.8" font-family="Times,serif" font-size="14.00" fill="#000000">14</text>
</g>
</g>
</svg>
