<?xml version="1.0" encoding="UTF-8" standalone="no"?>
<!DOCTYPE svg PUBLIC "-//W3C//DTD SVG 1.1//EN"
 "http://www.w3.org/Graphics/SVG/1.1/DTD/svg11.dtd">
<!-- Generated by graphviz version 2.40.1 (20161225.0304)
 -->
<!-- Title: finite_state_machine Pages: 1 -->
<svg width="204pt" height="479pt"
 viewBox="0.00 0.00 204.00 479.00" xmlns="http://www.w3.org/2000/svg" xmlns:xlink="http://www.w3.org/1999/xlink">
<g id="graph0" class="graph" transform="scale(1 1) rotate(0) translate(4 475)">
<title>finite_state_machine</title>
<polygon fill="#ffffff" stroke="transparent" points="-4,4 -4,-475 200,-475 200,4 -4,4"/>
<!-- 2 -->
<g id="node1" class="node">
<title>2</title>
<ellipse fill="none" stroke="#000000" cx="92" cy="-453" rx="18" ry="18"/>
<text text-anchor="middle" x="92" y="-449.3" font-family="Times,serif" font-size="14.00" fill="#000000">2</text>
</g>
<!-- 4 -->
<g id="node2" class="node">
<title>4</title>
<ellipse fill="none" stroke="#000000" cx="92" cy="-366" rx="18" ry="18"/>
<text text-anchor="middle" x="92" y="-362.3" font-family="Times,serif" font-size="14.00" fill="#000000">4</text>
</g>
<!-- 2&#45;&gt;4 -->
<g id="edge1" class="edge">
<title>2&#45;&gt;4</title>
<path fill="none" stroke="#000000" d="M92,-434.9735C92,-423.1918 92,-407.5607 92,-394.1581"/>
<polygon fill="#000000" stroke="#000000" points="95.5001,-394.0033 92,-384.0034 88.5001,-394.0034 95.5001,-394.0033"/>
<text text-anchor="middle" x="99" y="-405.8" font-family="Times,serif" font-size="14.00" fill="#000000">12</text>
</g>
<!-- 5 -->
<g id="node5" class="node">
<title>5</title>
<ellipse fill="none" stroke="#000000" cx="135" cy="-279" rx="18" ry="18"/>
<text text-anchor="middle" x="135" y="-275.3" font-family="Times,serif" font-size="14.00" fill="#000000">5</text>
</g>
<!-- 4&#45;&gt;5 -->
<g id="edge5" class="edge">
<title>4&#45;&gt;5</title>
<path fill="none" stroke="#000000" d="M100.088,-349.636C106.3943,-336.8766 115.2639,-318.9312 122.4847,-304.3216"/>
<polygon fill="#000000" stroke="#000000" points="125.655,-305.8063 126.9483,-295.2907 119.3797,-302.7046 125.655,-305.8063"/>
<text text-anchor="middle" x="123" y="-318.8" font-family="Times,serif" font-size="14.00" fill="#000000">14</text>
</g>
<!-- 3 -->
<g id="node3" class="node">
<title>3</title>
<ellipse fill="none" stroke="#000000" cx="69" cy="-18" rx="18" ry="18"/>
<text text-anchor="middle" x="69" y="-14.3" font-family="Times,serif" font-size="14.00" fill="#000000">3</text>
</g>
<!-- 3&#45;&gt;2 -->
<g id="edge3" class="edge">
<title>3&#45;&gt;2</title>
<path fill="none" stroke="#000000" d="M53.6867,-27.7514C33.3587,-42.0286 0,-70.6854 0,-105 0,-366 0,-366 0,-366 0,-402.5758 38.862,-428.3579 66.0706,-441.9265"/>
<polygon fill="#000000" stroke="#000000" points="64.5899,-445.0979 75.1258,-446.2143 67.5857,-438.7713 64.5899,-445.0979"/>
<text text-anchor="middle" x="3.5" y="-231.8" font-family="Times,serif" font-size="14.00" fill="#000000">2</text>
</g>
<!-- 3&#45;&gt;4 -->
<g id="edge2" class="edge">
<title>3&#45;&gt;4</title>
<path fill="none" stroke="#000000" d="M61.8487,-34.6589C55.097,-51.9211 46,-79.8469 46,-105 46,-279 46,-279 46,-279 46,-303.5884 60.5373,-328.0259 73.2672,-344.7114"/>
<polygon fill="#000000" stroke="#000000" points="70.6831,-347.0834 79.6728,-352.6901 76.1416,-342.701 70.6831,-347.0834"/>
<text text-anchor="middle" x="49.5" y="-188.3" font-family="Times,serif" font-size="14.00" fill="#000000">5</text>
</g>
<!-- 1 -->
<g id="node4" class="node">
<title>1</title>
<ellipse fill="none" stroke="#000000" cx="125" cy="-192" rx="18" ry="18"/>
<text text-anchor="middle" x="125" y="-188.3" font-family="Times,serif" font-size="14.00" fill="#000000">1</text>
</g>
<!-- 3&#45;&gt;1 -->
<g id="edge4" class="edge">
<title>3&#45;&gt;1</title>
<path fill="none" stroke="#000000" d="M74.5517,-35.2499C84.3052,-65.5553 104.5853,-128.5687 116.2437,-164.793"/>
<polygon fill="#000000" stroke="#000000" points="113.0304,-166.2332 119.4258,-174.6801 119.6938,-164.0886 113.0304,-166.2332"/>
<text text-anchor="middle" x="109" y="-101.3" font-family="Times,serif" font-size="14.00" fill="#000000">11</text>
</g>
<!-- 1&#45;&gt;4 -->
<g id="edge10" class="edge">
<title>1&#45;&gt;4</title>
<path fill="none" stroke="#000000" d="M117.8801,-208.6778C112.325,-222.4485 104.9152,-242.6418 101,-261 95.5155,-286.7165 93.3524,-316.6514 92.5101,-337.9632"/>
<polygon fill="#000000" stroke="#000000" points="89.0118,-337.8568 92.1866,-347.9648 96.0081,-338.0832 89.0118,-337.8568"/>
<text text-anchor="middle" x="104.5" y="-275.3" font-family="Times,serif" font-size="14.00" fill="#000000">1</text>
</g>
<!-- 1&#45;&gt;5 -->
<g id="edge12" class="edge">
<title>1&#45;&gt;5</title>
<path fill="none" stroke="#000000" d="M129.5427,-209.4664C130.8872,-215.3183 132.2097,-221.9047 133,-228 133.9602,-235.4062 134.505,-243.4635 134.8037,-250.9406"/>
<polygon fill="#000000" stroke="#000000" points="131.3066,-251.096 135.0799,-260.9961 138.3039,-250.9038 131.3066,-251.096"/>
<text text-anchor="middle" x="141" y="-231.8" font-family="Times,serif" font-size="14.00" fill="#000000">14</text>
</g>
<!-- 0 -->
<g id="node6" class="node">
<title>0</title>
<ellipse fill="none" stroke="#000000" cx="149" cy="-105" rx="18" ry="18"/>
<text text-anchor="middle" x="149" y="-101.3" font-family="Times,serif" font-size="14.00" fill="#000000">0</text>
</g>
<!-- 1&#45;&gt;0 -->
<g id="edge11" class="edge">
<title>1&#45;&gt;0</title>
<path fill="none" stroke="#000000" d="M124.0332,-173.7024C124.0158,-163.8227 124.8191,-151.5281 128,-141 129.2713,-136.7922 131.1219,-132.5542 133.2051,-128.5372"/>
<polygon fill="#000000" stroke="#000000" points="136.3487,-130.0926 138.3253,-119.6838 130.2891,-126.5882 136.3487,-130.0926"/>
<text text-anchor="middle" x="131.5" y="-144.8" font-family="Times,serif" font-size="14.00" fill="#000000">7</text>
</g>
<!-- 5&#45;&gt;1 -->
<g id="edge9" class="edge">
<title>5&#45;&gt;1</title>
<path fill="none" stroke="#000000" d="M131.0376,-261.1305C129.8912,-255.3691 128.7486,-248.938 128,-243 127.0907,-235.7869 126.4561,-227.9643 126.0136,-220.662"/>
<polygon fill="#000000" stroke="#000000" points="129.4985,-220.2757 125.493,-210.4673 122.5076,-220.6328 129.4985,-220.2757"/>
<text text-anchor="middle" x="131.5" y="-231.8" font-family="Times,serif" font-size="14.00" fill="#000000">7</text>
</g>
<!-- 0&#45;&gt;2 -->
<g id="edge6" class="edge">
<title>0&#45;&gt;2</title>
<path fill="none" stroke="#000000" d="M160.1422,-119.1679C171.9779,-135.6735 189,-164.2377 189,-192 189,-366 189,-366 189,-366 189,-403.8406 147.5842,-429.3752 118.877,-442.5292"/>
<polygon fill="#000000" stroke="#000000" points="117.1228,-439.475 109.3417,-446.6655 119.9086,-445.8968 117.1228,-439.475"/>
<text text-anchor="middle" x="192.5" y="-275.3" font-family="Times,serif" font-size="14.00" fill="#000000">8</text>
</g>
<!-- 0&#45;&gt;3 -->
<g id="edge7" class="edge">
<title>0&#45;&gt;3</title>
<path fill="none" stroke="#000000" d="M137.6807,-90.8268C129.2118,-80.4105 117.2074,-66.0352 106,-54 100.9114,-48.5356 95.2162,-42.815 89.8481,-37.5838"/>
<polygon fill="#000000" stroke="#000000" points="91.962,-34.7611 82.3261,-30.3564 87.112,-39.8087 91.962,-34.7611"/>
<text text-anchor="middle" x="125" y="-57.8" font-family="Times,serif" font-size="14.00" fill="#000000">10</text>
</g>
<!-- 0&#45;&gt;1 -->
<g id="edge8" class="edge">
<title>0&#45;&gt;1</title>
<path fill="none" stroke="#000000" d="M144.1505,-122.5796C140.834,-134.6017 136.3706,-150.7815 132.5872,-164.4965"/>
<polygon fill="#000000" stroke="#000000" points="129.1421,-163.8235 129.8568,-174.3943 135.8901,-165.6851 129.1421,-163.8235"/>
<text text-anchor="middle" x="141.5" y="-144.8" font-family="Times,serif" font-size="14.00" fill="#000000">0</text>
</g>
</g>
</svg>
